<mxfile host="Electron" agent="Mozilla/5.0 (Windows NT 10.0; Win64; x64) AppleWebKit/537.36 (KHTML, like Gecko) draw.io/28.1.2 Chrome/138.0.7204.243 Electron/37.4.0 Safari/537.36" version="28.1.2">
  <diagram name="Page-1" id="IU464IL2fR9T7Tri_iEN">
    <mxGraphModel dx="1794" dy="581" grid="1" gridSize="10" guides="1" tooltips="1" connect="1" arrows="1" fold="1" page="1" pageScale="1" pageWidth="850" pageHeight="1100" math="0" shadow="0">
      <root>
        <mxCell id="0" />
        <mxCell id="1" parent="0" />
        <mxCell id="aitId8dFWl2rubIfRfJI-8" value="" style="rounded=0;whiteSpace=wrap;html=1;fillColor=none;dashed=1;strokeColor=light-dark(#616161, #ededed);" parent="1" vertex="1">
          <mxGeometry x="-50" y="70" width="180" height="710" as="geometry" />
        </mxCell>
        <mxCell id="aitId8dFWl2rubIfRfJI-9" value="" style="rounded=0;whiteSpace=wrap;html=1;fillColor=default;strokeColor=none;" parent="1" vertex="1">
          <mxGeometry x="350" y="250" width="120" height="60" as="geometry" />
        </mxCell>
        <mxCell id="aitId8dFWl2rubIfRfJI-14" value="Sources" style="rounded=0;whiteSpace=wrap;html=1;fontSize=22;" parent="1" vertex="1">
          <mxGeometry x="-18.770000000000003" y="50" width="120" height="60" as="geometry" />
        </mxCell>
        <mxCell id="aitId8dFWl2rubIfRfJI-15" value="" style="rounded=0;whiteSpace=wrap;html=1;fillColor=none;dashed=1;strokeColor=light-dark(#615c5c, #ededed);" parent="1" vertex="1">
          <mxGeometry x="184.5" y="70" width="651" height="710" as="geometry" />
        </mxCell>
        <mxCell id="aitId8dFWl2rubIfRfJI-17" value="Data Warehouse" style="rounded=0;whiteSpace=wrap;html=1;fontSize=22;strokeColor=none;" parent="1" vertex="1">
          <mxGeometry x="425" y="40" width="190" height="60" as="geometry" />
        </mxCell>
        <mxCell id="aitId8dFWl2rubIfRfJI-18" value="" style="rounded=0;whiteSpace=wrap;html=1;fillColor=none;dashed=1;strokeColor=light-dark(#3c3939, #ededed);" parent="1" vertex="1">
          <mxGeometry x="920" y="70" width="200" height="710" as="geometry" />
        </mxCell>
        <mxCell id="aitId8dFWl2rubIfRfJI-19" value="Consume" style="rounded=0;whiteSpace=wrap;html=1;strokeColor=none;fontSize=22;" parent="1" vertex="1">
          <mxGeometry x="960" y="40" width="120" height="60" as="geometry" />
        </mxCell>
        <mxCell id="aitId8dFWl2rubIfRfJI-20" value="Bronze Layer" style="rounded=0;whiteSpace=wrap;html=1;fillColor=#fad7ac;strokeColor=#b46504;" parent="1" vertex="1">
          <mxGeometry x="230" y="110" width="140" height="20" as="geometry" />
        </mxCell>
        <mxCell id="aitId8dFWl2rubIfRfJI-21" value="" style="rounded=0;whiteSpace=wrap;html=1;fillColor=none;strokeColor=#b46504;dashed=1;" parent="1" vertex="1">
          <mxGeometry x="200" y="140" width="180" height="620" as="geometry" />
        </mxCell>
        <mxCell id="aitId8dFWl2rubIfRfJI-22" value="Silver Layer" style="rounded=0;whiteSpace=wrap;html=1;fillColor=#fad9d5;strokeColor=#ae4132;" parent="1" vertex="1">
          <mxGeometry x="430" y="110" width="160" height="20" as="geometry" />
        </mxCell>
        <mxCell id="aitId8dFWl2rubIfRfJI-23" value="" style="rounded=0;whiteSpace=wrap;html=1;fillColor=none;strokeColor=light-dark(#c4aeab, #ec8f82);dashed=1;fontStyle=1" parent="1" vertex="1">
          <mxGeometry x="430" y="140" width="170" height="620" as="geometry" />
        </mxCell>
        <mxCell id="aitId8dFWl2rubIfRfJI-24" value="Golde Layer" style="rounded=0;whiteSpace=wrap;html=1;fillColor=#fff2cc;strokeColor=#d6b656;gradientColor=#ffd966;" parent="1" vertex="1">
          <mxGeometry x="640" y="110" width="190" height="20" as="geometry" />
        </mxCell>
        <mxCell id="aitId8dFWl2rubIfRfJI-25" value="" style="rounded=0;whiteSpace=wrap;html=1;fillColor=none;strokeColor=light-dark(#c8aa3c, #ededed);dashed=1;" parent="1" vertex="1">
          <mxGeometry x="640" y="150" width="180" height="610" as="geometry" />
        </mxCell>
        <mxCell id="aitId8dFWl2rubIfRfJI-26" style="edgeStyle=orthogonalEdgeStyle;rounded=0;orthogonalLoop=1;jettySize=auto;html=1;exitX=0.5;exitY=1;exitDx=0;exitDy=0;" parent="1" source="aitId8dFWl2rubIfRfJI-24" target="aitId8dFWl2rubIfRfJI-24" edge="1">
          <mxGeometry relative="1" as="geometry" />
        </mxCell>
        <mxCell id="aitId8dFWl2rubIfRfJI-27" value="" style="image;aspect=fixed;html=1;points=[];align=center;fontSize=12;image=img/lib/azure2/general/Folder_Blank.svg;" parent="1" vertex="1">
          <mxGeometry x="9.19" y="160" width="61.61" height="50" as="geometry" />
        </mxCell>
        <mxCell id="aitId8dFWl2rubIfRfJI-28" value="" style="image;aspect=fixed;html=1;points=[];align=center;fontSize=12;image=img/lib/azure2/general/File.svg;" parent="1" vertex="1">
          <mxGeometry x="60" y="190" width="24.35" height="30" as="geometry" />
        </mxCell>
        <mxCell id="aitId8dFWl2rubIfRfJI-29" value="CRM" style="text;html=1;align=center;verticalAlign=middle;whiteSpace=wrap;rounded=0;" parent="1" vertex="1">
          <mxGeometry x="20" y="220" width="40" height="10" as="geometry" />
        </mxCell>
        <mxCell id="aitId8dFWl2rubIfRfJI-30" value="" style="image;aspect=fixed;html=1;points=[];align=center;fontSize=12;image=img/lib/azure2/general/Folder_Blank.svg;" parent="1" vertex="1">
          <mxGeometry x="11.659999999999997" y="272" width="59.14" height="48" as="geometry" />
        </mxCell>
        <mxCell id="aitId8dFWl2rubIfRfJI-31" value="" style="image;aspect=fixed;html=1;points=[];align=center;fontSize=12;image=img/lib/azure2/general/File.svg;" parent="1" vertex="1">
          <mxGeometry x="62.82" y="300" width="24.35" height="30" as="geometry" />
        </mxCell>
        <mxCell id="aitId8dFWl2rubIfRfJI-32" value="ERP" style="text;html=1;align=center;verticalAlign=middle;whiteSpace=wrap;rounded=0;" parent="1" vertex="1">
          <mxGeometry x="21.610000000000007" y="330" width="49.19" height="10" as="geometry" />
        </mxCell>
        <mxCell id="aitId8dFWl2rubIfRfJI-33" value="" style="endArrow=none;html=1;rounded=0;" parent="1" edge="1">
          <mxGeometry width="50" height="50" relative="1" as="geometry">
            <mxPoint x="10" y="360" as="sourcePoint" />
            <mxPoint x="120" y="360" as="targetPoint" />
            <Array as="points">
              <mxPoint x="-30" y="360" />
              <mxPoint x="10" y="360" />
              <mxPoint x="90" y="360" />
            </Array>
          </mxGeometry>
        </mxCell>
        <mxCell id="aitId8dFWl2rubIfRfJI-35" value="&lt;b&gt;Object Type&lt;/b&gt; &lt;b&gt;: &lt;/b&gt;CSV files" style="text;html=1;align=center;verticalAlign=middle;whiteSpace=wrap;rounded=0;" parent="1" vertex="1">
          <mxGeometry x="-35" y="380" width="137.64" height="30" as="geometry" />
        </mxCell>
        <mxCell id="aitId8dFWl2rubIfRfJI-37" value="&lt;b&gt;Interface : &lt;/b&gt;Files in Folders" style="text;html=1;align=center;verticalAlign=middle;whiteSpace=wrap;rounded=0;" parent="1" vertex="1">
          <mxGeometry x="-35" y="440" width="150" height="30" as="geometry" />
        </mxCell>
        <mxCell id="aitId8dFWl2rubIfRfJI-38" value="" style="html=1;verticalLabelPosition=bottom;align=center;labelBackgroundColor=#ffffff;verticalAlign=top;strokeWidth=2;strokeColor=#82b366;shadow=0;dashed=0;shape=mxgraph.ios7.icons.data;fillColor=#d5e8d4;gradientColor=#97d077;" parent="1" vertex="1">
          <mxGeometry x="289" y="200" width="42" height="50" as="geometry" />
        </mxCell>
        <mxCell id="aitId8dFWl2rubIfRfJI-44" value="" style="html=1;verticalLabelPosition=bottom;align=center;labelBackgroundColor=#ffffff;verticalAlign=top;strokeWidth=2;strokeColor=#666666;shadow=0;dashed=0;shape=mxgraph.ios7.icons.data;fillColor=#f5f5f5;gradientColor=#b3b3b3;" parent="1" vertex="1">
          <mxGeometry x="489" y="200" width="42" height="50" as="geometry" />
        </mxCell>
        <mxCell id="aitId8dFWl2rubIfRfJI-48" value="" style="html=1;verticalLabelPosition=bottom;align=center;labelBackgroundColor=#ffffff;verticalAlign=top;strokeWidth=2;strokeColor=#d6b656;shadow=0;dashed=0;shape=mxgraph.ios7.icons.data;fillColor=#fff2cc;gradientColor=#ffd966;" parent="1" vertex="1">
          <mxGeometry x="720" y="190" width="42" height="50" as="geometry" />
        </mxCell>
        <mxCell id="aitId8dFWl2rubIfRfJI-51" value="" style="html=1;shadow=0;dashed=0;align=center;verticalAlign=middle;shape=mxgraph.arrows2.arrow;dy=0.6;dx=40;notch=0;fillColor=#dae8fc;gradientColor=#7ea6e0;strokeColor=#6c8ebf;" parent="1" vertex="1">
          <mxGeometry x="370" y="251.25" width="70" height="28.75" as="geometry" />
        </mxCell>
        <mxCell id="aitId8dFWl2rubIfRfJI-52" value="" style="html=1;shadow=0;dashed=0;align=center;verticalAlign=middle;shape=mxgraph.arrows2.arrow;dy=0.6;dx=40;notch=0;fillColor=#dae8fc;gradientColor=#7ea6e0;strokeColor=#6c8ebf;" parent="1" vertex="1">
          <mxGeometry x="130" y="250" width="100" height="30" as="geometry" />
        </mxCell>
        <mxCell id="aitId8dFWl2rubIfRfJI-53" value="" style="html=1;shadow=0;dashed=0;align=center;verticalAlign=middle;shape=mxgraph.arrows2.arrow;dy=0.6;dx=40;notch=0;fillColor=#dae8fc;gradientColor=#7ea6e0;strokeColor=#6c8ebf;" parent="1" vertex="1">
          <mxGeometry x="590" y="250" width="60" height="30" as="geometry" />
        </mxCell>
        <mxCell id="aitId8dFWl2rubIfRfJI-54" value="Raw Data" style="text;html=1;align=center;verticalAlign=middle;whiteSpace=wrap;rounded=0;" parent="1" vertex="1">
          <mxGeometry x="280" y="250" width="60" height="30" as="geometry" />
        </mxCell>
        <mxCell id="aitId8dFWl2rubIfRfJI-56" value="Cleaned Standardized Data" style="text;html=1;align=center;verticalAlign=middle;whiteSpace=wrap;rounded=0;" parent="1" vertex="1">
          <mxGeometry x="455" y="260" width="110" height="30" as="geometry" />
        </mxCell>
        <mxCell id="aitId8dFWl2rubIfRfJI-57" value="Business Ready Data" style="text;html=1;align=center;verticalAlign=middle;whiteSpace=wrap;rounded=0;" parent="1" vertex="1">
          <mxGeometry x="695.5" y="250" width="91" height="30" as="geometry" />
        </mxCell>
        <mxCell id="aitId8dFWl2rubIfRfJI-60" value="" style="endArrow=none;html=1;rounded=0;" parent="1" edge="1">
          <mxGeometry width="50" height="50" relative="1" as="geometry">
            <mxPoint x="270" y="360" as="sourcePoint" />
            <mxPoint x="360" y="360" as="targetPoint" />
            <Array as="points">
              <mxPoint x="210" y="360" />
              <mxPoint x="370" y="360" />
            </Array>
          </mxGeometry>
        </mxCell>
        <mxCell id="aitId8dFWl2rubIfRfJI-61" value="&lt;b&gt;Object Type : &lt;/b&gt;Tables" style="text;html=1;align=center;verticalAlign=middle;whiteSpace=wrap;rounded=0;" parent="1" vertex="1">
          <mxGeometry x="210" y="370" width="150" height="30" as="geometry" />
        </mxCell>
        <mxCell id="aitId8dFWl2rubIfRfJI-67" value="Load :&lt;span style=&quot;font-weight: normal;&quot;&gt;&amp;nbsp; &amp;nbsp; &amp;nbsp; &amp;nbsp; &amp;nbsp; &amp;nbsp; &amp;nbsp; &amp;nbsp; &amp;nbsp; &amp;nbsp; &amp;nbsp;&lt;/span&gt;" style="text;html=1;align=center;verticalAlign=middle;whiteSpace=wrap;rounded=0;fontStyle=1" parent="1" vertex="1">
          <mxGeometry x="210" y="410" width="150" height="30" as="geometry" />
        </mxCell>
        <mxCell id="aitId8dFWl2rubIfRfJI-69" value="&lt;ul&gt;&lt;li&gt;Batch Processing&amp;nbsp; &amp;nbsp;&amp;nbsp;&lt;/li&gt;&lt;li&gt;Full Load&amp;nbsp; &amp;nbsp; &amp;nbsp; &amp;nbsp; &amp;nbsp; &amp;nbsp; &amp;nbsp; &amp;nbsp; &amp;nbsp;&lt;/li&gt;&lt;li&gt;Truncate &amp;amp; Insert&amp;nbsp; &amp;nbsp;&amp;nbsp;&lt;/li&gt;&lt;/ul&gt;" style="text;html=1;align=center;verticalAlign=middle;whiteSpace=wrap;rounded=0;" parent="1" vertex="1">
          <mxGeometry x="210" y="440" width="150" height="50" as="geometry" />
        </mxCell>
        <mxCell id="aitId8dFWl2rubIfRfJI-70" value="No &lt;span style=&quot;font-weight: normal;&quot;&gt;Trasformations&lt;/span&gt;" style="text;html=1;align=center;verticalAlign=middle;whiteSpace=wrap;rounded=0;fontStyle=1" parent="1" vertex="1">
          <mxGeometry x="210" y="500" width="150" height="30" as="geometry" />
        </mxCell>
        <mxCell id="aitId8dFWl2rubIfRfJI-71" value="Data Model : &lt;span style=&quot;font-weight: normal;&quot;&gt;Non (as-is)&amp;nbsp;&lt;/span&gt;&amp;nbsp; &amp;nbsp; &amp;nbsp; &amp;nbsp;" style="text;html=1;align=center;verticalAlign=middle;whiteSpace=wrap;rounded=0;fontStyle=1" parent="1" vertex="1">
          <mxGeometry x="220" y="540" width="150" height="30" as="geometry" />
        </mxCell>
        <mxCell id="aitId8dFWl2rubIfRfJI-73" value="&lt;b&gt;Object Type :&amp;nbsp;&lt;/b&gt;Tables" style="text;html=1;align=center;verticalAlign=middle;whiteSpace=wrap;rounded=0;" parent="1" vertex="1">
          <mxGeometry x="440" y="370" width="150" height="30" as="geometry" />
        </mxCell>
        <mxCell id="aitId8dFWl2rubIfRfJI-74" value="&lt;span style=&quot;font-weight: 700;&quot;&gt;Load :&lt;/span&gt;&amp;nbsp; &amp;nbsp; &amp;nbsp; &amp;nbsp; &amp;nbsp; &amp;nbsp; &amp;nbsp; &amp;nbsp; &amp;nbsp; &amp;nbsp; &amp;nbsp;" style="text;html=1;align=center;verticalAlign=middle;whiteSpace=wrap;rounded=0;" parent="1" vertex="1">
          <mxGeometry x="440" y="410" width="150" height="30" as="geometry" />
        </mxCell>
        <mxCell id="aitId8dFWl2rubIfRfJI-75" value="&lt;ul&gt;&lt;li&gt;Batch Processing&amp;nbsp; &amp;nbsp;&amp;nbsp;&lt;/li&gt;&lt;li&gt;Full Load&amp;nbsp; &amp;nbsp; &amp;nbsp; &amp;nbsp; &amp;nbsp; &amp;nbsp; &amp;nbsp; &amp;nbsp; &amp;nbsp;&lt;/li&gt;&lt;li&gt;Truncate &amp;amp; Insert&amp;nbsp; &amp;nbsp;&amp;nbsp;&lt;/li&gt;&lt;/ul&gt;" style="text;html=1;align=center;verticalAlign=middle;whiteSpace=wrap;rounded=0;" parent="1" vertex="1">
          <mxGeometry x="440" y="450" width="150" height="30" as="geometry" />
        </mxCell>
        <mxCell id="aitId8dFWl2rubIfRfJI-77" value="Transformation :&amp;nbsp; &amp;nbsp;&lt;div&gt;&lt;ul&gt;&lt;li&gt;Data Cleansing&lt;/li&gt;&lt;li&gt;Data Standarization&lt;/li&gt;&lt;li&gt;Data Normalization&lt;/li&gt;&lt;li&gt;Derived Culomn&lt;/li&gt;&lt;li&gt;Data Enrichment&lt;/li&gt;&lt;/ul&gt;&lt;/div&gt;" style="text;html=1;align=center;verticalAlign=middle;whiteSpace=wrap;rounded=0;fontStyle=1" parent="1" vertex="1">
          <mxGeometry x="440" y="560" width="150" height="30" as="geometry" />
        </mxCell>
        <mxCell id="aitId8dFWl2rubIfRfJI-78" value="" style="endArrow=none;html=1;rounded=0;" parent="1" edge="1">
          <mxGeometry width="50" height="50" relative="1" as="geometry">
            <mxPoint x="440" y="360" as="sourcePoint" />
            <mxPoint x="590" y="360" as="targetPoint" />
            <Array as="points">
              <mxPoint x="440" y="360" />
              <mxPoint x="590" y="360" />
            </Array>
          </mxGeometry>
        </mxCell>
        <mxCell id="aitId8dFWl2rubIfRfJI-79" value="&lt;span style=&quot;font-weight: 700;&quot;&gt;Data Model :&amp;nbsp;&lt;/span&gt;Non (as-is)&amp;nbsp;&lt;span style=&quot;font-weight: 700;&quot;&gt;&amp;nbsp; &amp;nbsp; &amp;nbsp; &amp;nbsp;&lt;/span&gt;" style="text;html=1;align=center;verticalAlign=middle;whiteSpace=wrap;rounded=0;" parent="1" vertex="1">
          <mxGeometry x="460" y="650" width="150" height="30" as="geometry" />
        </mxCell>
        <mxCell id="aitId8dFWl2rubIfRfJI-80" value="" style="endArrow=none;html=1;rounded=0;" parent="1" edge="1">
          <mxGeometry width="50" height="50" relative="1" as="geometry">
            <mxPoint x="650" y="362" as="sourcePoint" />
            <mxPoint x="800" y="360" as="targetPoint" />
          </mxGeometry>
        </mxCell>
        <mxCell id="aitId8dFWl2rubIfRfJI-81" value="&lt;b&gt;Object Type : Views&lt;/b&gt;" style="text;html=1;align=center;verticalAlign=middle;whiteSpace=wrap;rounded=0;" parent="1" vertex="1">
          <mxGeometry x="650" y="380" width="170" height="30" as="geometry" />
        </mxCell>
        <mxCell id="aitId8dFWl2rubIfRfJI-82" value="&lt;b&gt;No Load&amp;nbsp; &amp;nbsp; &amp;nbsp; &amp;nbsp; &amp;nbsp; &amp;nbsp; &amp;nbsp; &amp;nbsp; &amp;nbsp;&amp;nbsp;&lt;/b&gt;" style="text;html=1;align=center;verticalAlign=middle;whiteSpace=wrap;rounded=0;" parent="1" vertex="1">
          <mxGeometry x="650" y="430" width="170" height="30" as="geometry" />
        </mxCell>
        <mxCell id="aitId8dFWl2rubIfRfJI-83" value="Transformation :&amp;nbsp; &amp;nbsp; &amp;nbsp;&lt;div&gt;&lt;ul&gt;&lt;li&gt;&lt;span style=&quot;font-weight: normal;&quot;&gt;Data Integrations&lt;/span&gt;&lt;/li&gt;&lt;li&gt;&lt;span style=&quot;font-weight: normal;&quot;&gt;Aggregations&lt;/span&gt;&lt;/li&gt;&lt;li&gt;&lt;span style=&quot;font-weight: normal;&quot;&gt;Business Logics&lt;/span&gt;&lt;/li&gt;&lt;/ul&gt;&lt;/div&gt;" style="text;html=1;align=center;verticalAlign=middle;whiteSpace=wrap;rounded=0;fontStyle=1" parent="1" vertex="1">
          <mxGeometry x="650" y="490" width="170" height="30" as="geometry" />
        </mxCell>
        <mxCell id="aitId8dFWl2rubIfRfJI-85" value="&lt;b&gt;Data Model :&amp;nbsp; &amp;nbsp; &amp;nbsp; &amp;nbsp; &amp;nbsp; &amp;nbsp;&lt;/b&gt;&lt;div&gt;&lt;ul&gt;&lt;li&gt;Star Schema&amp;nbsp; &amp;nbsp; &amp;nbsp;&lt;/li&gt;&lt;li&gt;Flat Table&amp;nbsp; &amp;nbsp; &amp;nbsp; &amp;nbsp; &amp;nbsp;&amp;nbsp;&lt;/li&gt;&lt;li&gt;Aggregated Table&lt;/li&gt;&lt;/ul&gt;&lt;/div&gt;" style="text;html=1;align=center;verticalAlign=middle;whiteSpace=wrap;rounded=0;" parent="1" vertex="1">
          <mxGeometry x="650" y="570" width="170" height="30" as="geometry" />
        </mxCell>
        <mxCell id="aitId8dFWl2rubIfRfJI-86" value="" style="shape=image;aspect=fixed;image=data:image/png,iVBORw0KGgoAAAANSUhEUgAAAgAAAAIACAYAAAD0eNT6AAAACXBIWXMAAA7DAAAOwwHHb6hkAAAAGXRFWHRTb2Z0d2FyZQB3d3cuaW5rc2NhcGUub3Jnm+48GgAAIABJREFUeJzs3XecXVW5//HPtEx6T0ggQEggBELvBAgYEQSki4ICikpXULFd9YcICKhXDRYErkEBsSIiCFxAEQg1EFpCDSmkAOl1Jm3K74+VuQzDlHPO8+y19znn+3691kuEOWs/p+21zirPAhERERERERERERERERERERERERERERERERERERERERERERERERERERERERERERERERERERERERERERERERERERERERERERERERERERERERERERERERERERERERERERGR7KpIOwARKVlDgF2AnYFxwE5Af6Av0A/os/nv6oAVm/93EfAG8BrwOvA8sCRq1CIiIpKXHsARwE+AGUCzQ2kCXgQmAcduvoaIiIhkwMHALUA9Po1+Z2UVMBk4FI1gioiIRNcTuAh4meQb/Y7KLOA8oDbh5yoiIlL2ugEXAG+TXsPftiwEvoqmB0RERBJxKjCb9Bv8jspswjoBERERcTAMuJP0G/hcy53ANom8EiIiImXiVGAp6Tfq+ZblwAkJvB4iIiIlrQq4hvQbcmu5gbBuQURERLowAHiQ9BtvrzJl83MSERGRDowiZOJLu9H2LtOBrRxfJxERkZKxLTCX9BvrpMpcYIzTayUiIlISRgBvkn4jnXSZj3YIiIiIADCIcPBO2o1zrDIdrQkQERHhDtJvlGOXKWh3gIiIlLFDSL8xTqv8zOH1EylaOk1LpLzdDJyZ5AUG96nlkJ2Hsus2/RizZV+2GdKT/r260bu2GoD6jY0sW7OB+UvrmfnOGp6fs4InXl/C0tUbkgwLQifgJELmQJGyow6ASHmbRdj656pvzxpO2n9rThm/Dbts04/KivxuNc3N8MLcFdzx1HzunLqAlXUbvUNssQLYnbA4UKSsqAMgUt7qCEf7uhjcp5YvHj2GTx0ykh7dqlzqrN/QyG1T5nLDAzNZtHK9S51t3AmcmETFIlmmDoBIeVsN9LFWUl1ZwXlH7sAXjx5Dr81D+97qNjTws7tfY/K/Z9PQ2ORd/ceAe7wrFckydQBEytuzwN6WCrYf1odJn9uL3UfG2Vk3fd5KLrjxGeYurvOsdjawC7DOs1KRLPMZoxORYjUCOLTQB0/cdQt+/+XxbDO4l2NInduiX3c+MX5bZr6zhlnvrvWqdgCwBHjaq0KRrNMIgEh52xZ4FeiR7wNPnzCSKz+1O1WV6dxGGpua+a/fv8AfH3vLq8qFwGgg8e0HIlmgEQCR8rYKaAQOz+dBnzxoW354xp5UptT4A1RWVHD4bsN5d+U6Zsxb5VFlX8JugGkelYlknToAIvI4sCU5rgU4fcJIrjljj7y39iWhogIm7jqMVxas9poO2An4pUdFIllXmXYAIpK6ZuCcsyaOurdPj5oO/6hPjxquPG03rj49G41/i6rKCq793N6MHOqyDmF74GCPikSyLjvfYhFJzcyfH9W3e/fauWvXNwy446n5PPn6Ut5aWkdlRQXbDO7J+LFDOHafrejXs+MOQtqmz1vJcVc/6rFF8DfA2Q4hiWSaOgAiwrwbj/9aBRU/TjsOqyv+OoMbH3zTWs0qYDjaEiglTlMAIkJFc8Vn0o7Bw1eOHcuQvt2t1fQDJjqEI5Jp6gCIlLl5N560LxXsknYcHnp3r+bcI7b3qOpDHpWIZJk6ACJlr/m0tCPwdPqhI+nfq5u1mg97xCKSZeoAiJS5Cjgi7Rg89aqt5rh9t7JWsxsw2CEckcxSB0CkvOwCTAJmAGsrKqj78GX/GnfZn6fz+sLVKYfm5+QDtrZWUQns6RCKSGYpEZBIeegG/ByYDBwIDN3872qWrdnI83NWcNuUuSxbs5FDdhqSWnpfL8P69+CWR+awbmOjpZqpm4tISVIHQKT0dQPuAz5BJ1t/m5vhhbkrmDZrOcfvO6KoOwEVFfDSWyt54+01lmpmEV43kZKkKQCR0vcz8tjW9thrS7ji9hkJhhPHnqMGWqvY0SMOkaxSB0CktO0CnJvvg255eI7113PqRm/R21rFMI84RLJKHQCR0vYFCpjqa2xq5k+PzfWPJqLttjCfDdDHIw6RrFIHQKS0faTQBz766hLPOKLr19OcC0AdAClp6gCIlLZtCn3gwmX1nnFE17t7tbUKdQCkpKkDIFLaCv4ZvHZ9A5sazCfrFbPi3QYhkgN1AERK21rLg+s2NHjFEd3a9ebYi3sVpEgX1AEQKW2mDsDKuk1ecUS3qn6jtQp1AKSkqQMgUtpMHYC5S0wPT9WcRXXWKor3yYvkQB0AkdK20PLgWe8Wbxs4a5E59gUecYhklToAIqVtpuXBz81e4RVHdM/NWm6twvTaiWSdOgAipc3UiD3x2hKam71Ciae5GZ58Y6m1GnUApKSpAyBS2l63PHjpmg28OLf4RgGem7OcZWs2WKt5wyMWkaxSB0CktD0NmDbz/+2p+U6hxPO3J80xNxFeO5GSpQ6ASGlbDpiO9rtz6gLqNzQ6hZO8ug0N3P2sae0jwIvASodwRDJLHQCR0veI5cEr6zZy25S5TqEk79aH57CyzpwD4FGPWESyTB0AkdL3b2sFNzwwsyiyAq5d38CND87yqOpfHpWIZJk6ACKl736Mw9mLVq5n0j9N6wmj+Oldr7Jk9XprNSuABxzCEck0dQBESt964A5rJb/51yymz8vutPj0t1by24dme1R1B2CeQxDJOnUARMrDH60VNDQ2ccGNz3gcsuNuzbpNnH/jMzQ0uSQt+JNHJSJZpw6ASHn4Dw6JbeYuruPim6bR6NPQumhoaubiydN4a4k59z/AqzismRApBlVpByAiUTQThrU/Zq1o1rtrWbxqA4fvNoyKCntgFs3N8K3fv8Bdz5i3/bX4NvCcV2UiWaYOgEj5mAF8HuhjrWj6vJUsWFbPh3cfRmVKvYDGpma+/YcX+eOUt7yqXAx8DsjeHIdIAtQBECkfjYRpv494VPbKglW8umA1H951GN2q484mrlm3iQtufIY7p7oe2Pdd4DHPCkWyLOUBPBGJrBZ4GRjtVeHIob247px92XWb/l5Vdmr6Wys5/8ZnvOb8W7wB7AJs8qxUJMs0AiBSXhqBucBpXhWurNvEnx97ixVrN7Hv9oMSGw2o39DIL+57g6/+7jmWr3XfpfdZ4DXvSkWyTCMAIuXpXuAo70qH9O3OeUduz6cnjKRXbbVLnXUbGvj9I3O5/oGZLF1tPuGvPf8Ejk2iYpEsUwdApDxtRTjwZlASlffv1Y3j9xvBSfuPYM/tBua9W6C5ORzpe8dT8/nH1AWsqk9sZH4JsBvwblIXEMkqdQBEytcJwN+TvsigPrWM33Ewe44ayPbDerPN4F4M7NON3ptHCNZuaGD5mo3MW1rHm++s4bnZK3jyjaUsW5PIr/22TgTujHEhkaxRB6D4DQUmAOOAscAYYADQH+i9+W/WEnLBrwBeJ8x1vgxMIWx9kvL1a+C8tINIya+AL6YdhIhIPvYBfgpMB5oISV4KKU3AS8BPNtcp5acbIfNdoZ+hYi0PAj6LFEREEtYH+BrwCsndFF8GLsEhUYwUlf6E9z7tRjlWeY0wSiYikmkDge8Dy4l3g1wGXIZukuXkANJvmGOVB9D0p4hkWAVwJrCI9G6Uy4CL0aFRpa6CsBUu7YY5ZrnE5ZUTEXG2PSElado3yZYyBcfMcZI5F5D+Zyx22QDs7fHiiYh4OZGwWj/tG2Tbsgr4ZILPW9IxFqgj/c9XGmUmWu8iIhlQSViNn/ZNsavyYzR/WipqgGdI/zOVZrnJ/CqKiBhUE25Ead8Mcy2/JzQeUtyuJP3PUhaK27kIIiL5qKE4F2DdjToBxWw84dz7tD9HWSgrgJGmV1NEJE8VwO9I/wZYaLkN7RAoRr0Ix9+m/fnJUnkadWhFJKJimPPvqvzQ/VWRpE0m/c9NFsvllhdVRCRXnyD9G55HaQJOcn5tJDknkv5nxqu8QjjIx6u+BsK5GiIiiRlNOJwn7RuoV1kBjHJ9hSQJQwnH3qb9ebGUdcBfgMMJU2jVwOOO9c8noSOSRUQqyFaSH6/yCNoemGUVwL2k/znJtzQBLxK2n34E6NHOcxuJb4f69txfVhGR3H2O9G+qSZUzHV8n8ZWlbH+NwJrN/7weWALMAqYR8vT/Ajgf+BAwOMfn90nnGM/O8boiRUu/2OIaCLxO7je1nNX27sOYCUcwav8JDBu7C/233JruffsBsH71Kla+PZ93X5vO7Kcf5Y1HHmBD3VrvECCcW7AjIWugZMeOwHNAT6f6mrHdOx4DDnGKpbWbgLOc6qonHJH9qlN9IpmjDkBc3wcu9axw0MjRHPL5L7Pr0SdR07290dEP2rR+HdPv+RtTJl/LsrdmeYYD4fld4V2pFKwGeILQmHl4FDgQ25a5y4Hv+YTzPr0JowhjnOp7EdifcG6ASMlRByCevsBcnI7YrenenYlf+g4HnnEulVXVBdXR2LCJJ2+5nod+eRUNG9zuccsIc7KJDDFI3q4AvutU1xLgG8BvjfUcRlgzkoS9CR2ebk71XQt82akukUypSjuAMvIl4DiPigZtO5rPTr6TnT58NBWVhefhqaysYps992fUAYfxxiP3s7G+ziO8noROwJMelYnJeMKwuFeypk8TRhLGG+qoJ3wXGl0i+qB3COsKjnCqb3/CeQkzneoTyQyNAMTzCrCTtZLhO+3GmTfeTq+BvssIVi96m1vP+wSL3njFo7oZwK4eFUnB+gAv4Lc9czLwBcIQ+16Geh7Er3HuSCVwn+N1FgO7E7ZQipQMpXGNYx8cGv9B245OpPEH6LvFlpz+6z/Te/BQj+p2Afb0qEgKNgm/xn8WYRh8ILCHsa6H7OF0qQn4DKHh9jAUuBn9YJISow5AHJ+yVlDTvTunXXtLIo1/i37DtuK0a2+lulutR3U6YS09JxK2m3poAM4grOk4DPs9I0YHAMKv9bMIOxY8HAFc4lSXSCaoAxDHR6wVTPzSdxi6g3kQoUtb77EvE875ikdV5ucsBRkG3OhY39W8t55jorGulYQphFjuBX7uWN8PCIsMRUqChrSS15J+teDXetDI0XzpricLXu2fr431dUw6am/WLjWNoDYBWwBLfaKSHFQA9wBHOdX3DHAQsGnz/7euY/kHcII1qDzVEk76292pvjcInQDtcpGipxGA5E3A2NE65PNfjtb4A3Tr2YvDzv+GtZpKdLBKbOfj1/jXE4b+Wxr/LbGvY4k1/N/aBsJ0VL1TfWPwHVUQSY06AMnbxfLg2t592PXo+Ift7XH8qdT26m2tZpxHLJKTsYR8+V4uIWStbGEd/od0OgAQsvm5zGttdhYO63pE0qYOQPJMWcnGTDgi5wx/nrr16MkOE8zT+Dt6xCJdqgFuxS/V773ADW3+3YeMdS4CXjbWYXEj8DfH+q4jJLwSKVrqACTP1AEYtX96o+gO1/ZKySqduxS/VL9LgM/zwdXzHzbW+5926oztbMJxvx76AbcRjiMWKUrqACTPtG9v2FjTDILJFmPMI/jJ7VmUFuOB/3Ks7wI+mPBmNLCtsd5/Gx/vYQUhm6FXFsLxwP9zqkskOnUAkmeaSB+w1TZeceRt4NbWez59POKQDvUBbsEvpfdk4PZ2/r3H/P9/HOrwMAW4yrG+76DFrlKk1AFInqkRrO2dXhta27uvtQp1AJJ1LeHXuYfZdLxQztoBmEfIJpgVlwOPO9VVRZgKGORUn0g06gAkr5xfYx02lZzjCavRPTQApwNr2vlvFYQMgBb/Mj7eWwNha+AKp/pG4Jt8SSSKcm6cYllnefCGte3dk+PYsHa1tYqNKNlUEoYBv3Gsr3W2v7bGbb6eRVrb/zozn5A3wctJwDmO9YkkTh2A5Jla8OUL3vKKI/9rzzdfuyfwFmGoegIaEfBQQTji12uB5TPAFZ3891Ka/2/rz8BvHev7GQ6HfonEog5A8t62PHjR6zO84sjbuz7X3hq4CHgEWAhcTzhYpcaj8jKUZLa/9lg7AK9i/A4k7CJCel8PPYE/EtIPi2SeOgDJM+07nv30o15x5H/tpx7xrnIL4FzgfsJWs98BxwLdvS9UonbEN9vf13h/tr+2qoBDjdfI4vB/a2sJWf02OtW3O/BDp7pEEqUOQPJM2c9ef/h+NtbXecWSs43r6pk5JdG1WwMJZ7bfBSwD7gbORDsHOlJN2PLnle3vfsJoTGf2Bvobr5OF/f9dmUbYzuflIkLHViTT1AFI3kuWB2+sr2PGfX/3iiVnL/3zrzE7Hj2BjwE3E1LG/p2wKt3a+JSS7wH7OdW1BPgsXWfms6b/bSJM/RSDnwAPONVVQVikaV08KZIodQCS94S1gimTr6WxobNpWl+NmzYy5TfXRrteGz0IR8beSugM3Ad8ARiSVkAZ4J3t7xw+mO2vPdb5/+eB5cY6YmkmjEiZzsBuZSihQ6t7rGSWPpzJW0jn86xdWvbWLJ68pavRWj+P/+5XrFgwN9r1OtEN+CjwP8A7hPnkC4Gt0gwqsiSy/d2Zw9/VAgcbr5X1+f+23iXkVvA6s+AI4KtOdYm4UwcgjnusFTz0y6uY/+KzHrF0at4LU3n4uh8lfp0CVBGGpH8JLCCsrbiM0j9wKFa2v7YOwL7eoNg6ABBOQvy5Y31XAfs71ifiRkla4jiAjhOt5Kz34KGc++d/029YMj+A1yx+l+s/OZE1i3MZHc6UV4C/An/Z/M+l4nhy+7WeiyZCByrXbSXfJ5wyWKiNhPS4aw11pKUWeArYw6m+N4G9MOYEEfGmEYA4ngZmWitZu3Qxvz//k6xe5L+tetW7C7n5nJOLsfEH2JmwSO7lzeVy/G7eafHO9ncVuTf+YJ//n0pxNv4AGwhbA+ud6tueMJIjkinKzBZPDXCktZK6ZUt44a4/M2K3fei/5dYOYcH8F57hd58/gRUpZh10NISwd/08wnzudoSGyOsc+BgqgD/h14mZRthi2ZTj3/ciDINb7g+/BR42PD5tSzcXr+18exJ+BEx3qk/ETFMA8QwA5gD9PCqr7lbLhHO+wvjPfpFuPQqbqm3ctJHHf/crHr7uRzRs3OARVpYtAO7YXB7D70z4JFwA/MqprnrC8HM+C1E/Sth9YXEYxbMFsDO3Ayc71bWK0Kmb61SfiIk6AHFdAXzXs8Leg4dy2PnfYI/jT825I7BxXT0v/fOvTPnNpFL51Z+vxYS59b8R8tTH22PZtR2B5/BL+HMB8Os8H/Mj4OuGa9YTEj2VQq9yAPAiIaW1hycII1QNTvWJFEwdgLgGEPKOex3k8n+69ezFmEOPYLv9DmH42F0ZMGIbuvcJgw3r16xixYJ5vPPqS8yZOoU3Hn0wleyCGbWCkI3wDkIimPUpxlJDaCD2carvXkKCpXy3tT1LyAJYqAdwmO7KkAmEHQ1eU6ZXYFtgKSJF6lzCDVkle6We91IS9+3oDUzQlXnG21lZQmGZ6PoTfp1arv3NAq6bdZfj9940Ys+yKCJFqBKYQvqNnXeZQti2djMh+1va8VhLPSEl8RnESUk8HnvD27qcUGAcJzpce98Cr51l1cDj+L0/8wjTJCJSZkYTVqan3ch5ldXAqFbPr2XHw42E+fa047OWDYRFcWeTTEriPoS94l7xWrYP/sJ47RWU7u6ikYTn5/U+3R41ehHJjFNJv2HzKp/s5HlWElLKXkvYipd2rNbSSNhFcDF+KYlvcoxvFrYTFV8xXj/+yVVxfRzfz9PZccMXkaz4Mek3aNaSz3a1CkJWxB8TGqq0Y7eWJsKiva8R8g0U4gTHeBoIUwmFGk54TpYYLjJcv1h4dtjqgJ3ihi8iWVBBOJM97YbMUqYRDu0pxDhCPv9nM/A8PErL+QQ75/j8hxIOoPG6/uU5Xrcjn3aIYZwxhmLQC3gNv/dtOuEUTBEpM5WEo2/Tbrws5QqH12EUYVj9Mey/QrNQZhGmPQ6m/e22FcA/Ha83jbD2wmKyMYZFHTzXUrQXYW2I1/s3KW74IpIV1YTUr2k3WoUW69BzW6MIw+pPUjqdgR8Rpj9aGsgLHOuvIyQQsppjjOMPDjEUk0vwew+bgKPjhi8iWVEB/D/CIrO0G6xCGznL4rOObAV8iZCxz3ObXFplPnAdodH2qvOCgl/d94xyiOMLDnEUkwrgfvzex0UUlrtBRErER4FlpN9QFVImJ/B6tDaIkKTnbnyHX4u5/C8+w+5nO8RS6ELIYjYUeAe/9/MBdEqrSFkbTZgLT7txKaScmMDr0Z4BhM7AnYSkPWk/7zRKodn+2vMHYyxznOIoRkfjO1X1tbjhi0jWVBKOtF1C+g1NWo1SrnoDnwD+DKwxxF5spdBsf21VYP8Vm/ToT9ZNwu993YDtLAYRKRH9gP8h/cYmn3Iv6a0G705ppSSO0eCOc4jn047xFKNa4Hn83t/XCR1bESlzF5N+g5Nv8ViYZtWSkvgGwgKrtF8Tr7KW96detvqSMZ4mQhKhcrcTvos7b4obvohk0W0k15i8Qtiith9woWO9XlvTvFQBhwE/pzRSEjcQjqj9IvaUxH83xvKy8fqlxGMxZetyatzwRSRrrAfF1AFvAU8T5skvA04GtmhznQrC8L3XzesZ7MlpktCSkvhHlEZK4kZCSuJLyH8lfhX2A25+kec1S93t+L23KwmHEIlIGRqEfYXxR/O4nnd6Wo8sgUkr55TE+zpcL9bOj2LRH5iL3/v5NNnsSItIwo7GdvNoInQi8nG88ZqtSyNwaL5POkXllpL4m8b6G9C59u05BN/EVdZzHkSkCF2G7cYxs8Drep54NhvoW2AcadqW9zoDxZqhsXWZwwc7A9ZMds8U9tKWhcvxe+8agQ/FDV9E0nYPthtHofnZ++A7P17s+8S3Iiy4+w+lkZJ4HmHvunXV+o8sL2qJq8Y3odc8NNoiUjYqsCcCuthw/fH4NnanGGLJkoEoJXFLOdL4Wpa6rfFN7f23uOGLSFpGY79hHGCM4UqHGFrKEkpvv3h/QsfmFsorC2EzofPTy/4SlryP4/u6nx03fBFJw6nYbhQbgR7GGGrwXR2fZpbApA0jbNtKu2GOVR71ednKgueamjpC0iERKWE/w3aj8FqgtT2+v26zkCUwCZNJv1GOWS5zedXKQy/gNfxe++nYO/cikmHWBUTXOcZSylkCPZxA+g1y7PJjYIjHi1cm9sZ3zcikuOGLSCw12I+5/YxjPBXAP43xtC7TgG6O8aXJO3lSMZVGQkf1YmCE9YUsA1/D77VvAo6NG76IxLA39huE9zxhOWYJ7Ip3x6jYS0sWwjGG17SUeX9eFlN6C2tFyt552G4Mq4DKBOI60RhX69JA2GpYzM7H7/WoA35IaETTbsg9ynPAd9CCtbaG4Xs65f0k810XkZRYVw3/O8OxtS6zCEmHitGO+B7/en6ruscSGs9pjvWnWV4kbF9TTvvgaHxTTX8tbvgikqQZ2G4IVycYm7IEhoZsKn6vwT10vD1yO8IN/gmKPyXxVHS6XQvrLp/WZQNh2lBEilwf7Df6ExKO8SB8swQW24lyV+D33BcThoVz0ZKS+CGKNyXxnM3Po9zVAs/j97q+DvSO+gxExN1E7DeDLSPEWa5ZAr1TJH+8wDiKOSXx/xb4nEvNDvjm2Lgpbvgi4s16ROv8SHGWY5bAPsCb+D3n3zjF1R84A7gT+/bRWOVwp+de7M7G93U9NW74IuLpb9huADEPDBmL70K4rGcJ/A1+z/VNkhmy7Q18AvgT2T6f4NYEnnuxuh2/13UlWmchUrQWYLsBfCNyvJ5ZAtcB4+KGn7Pj8Xuem4ADI8TcnZAs5gZ8t555lJkJPu9i0x+Yi99r+zTacSFSdLbE/uX/UOSYKwjD9143r2fI3s1rGPajmVuXy+OGD4TkPGk3+q1LXYHPYzDwMeASQgbCYwjrIYrdIfiuLUnjMyYiBtac8o2ks69+OL4NZJayBHp3cKaSTgfnCwXGm1RZkWf8WxGmDda3U1cDIffFhcRZAJuU7+P3+jYAE+KGLyIWV2P70s+IH/L/KdUsgRfg97zSPAjpDznGGKtMySP2jxCyW+ZSbyPwOGGEYLs8rpEF1dgPAWtd5lEaoyMiZeHf2L7waW8DKrUsgUlm+4upguwdWPSdHGM/gPZ/9edapgHfJixYLQYjCaMjXq/z7VGjF5GCVJL7r5yOynnRo36/UsoSWENYj+D1XDrL9pe0XXKMMVZZQ25HCdfiu+1yBmFufI/cXrbUfBLf1/ucuOGLSL52xv5F3zN61B9UKlkC08r2l4SLOogr19JEmJJpSUlszWOfa4N0hvE6nZU3CYcv7U828094jqbV0f6hTEOBkwif9T8SOrxzgeXAxs1lOTCbMJLyB+BS4OTNjxURJ5/F9iWvJzur572zBMZuPL2z/SWdmrkrd2KL/+U29VlSEl+ZR9yxjlqeB1wLHApU5RFfknoT0vt6PccXCCMq+wD/DbxmrK8JeAn4yeY6RcTgOmxfyMfih9yhYs4S6D2N4ZXtr1BV2OeUf9FJ/UMI2ezuo/OUxAvJP+1xGrkLFhHyJhxB+h3qvfBN87zcsa625WXCwsu01+2IFCVrg/nT+CF3qlizBE52jDmpbH/52Bf788h1GqY/8Cngl8ADhJz/vyAMM3crIPa00xovB34HHEdIqpSGSzqJL4tlGXAZMCCB10KkJHUnzLdZvnhZzAHumSUwxha6UtzKaD1booH0buaLc4wxRllNSK98CnE7dRWEjlTazz/fshg4i2yurxDJlAOxf+FGRY+6a8WUJdA7219Wkhndj+15PBs/5P/zQCdxpVnqgb8TFin2T+zZv2cY2UvlnGuZAoz2f0lESsdXsH3JFscPOWdD8d2DnkTDWoHvgrNppD9/DGHYfS225/LD6FG/J2vZC9srDYT1NxeT7GLVj2LffZFWWUXY2igi7bBmabsnfsh5yfrQeqlk+2trAvbn89HoUb+nJ2ELWtoNWD6fzYcIOyS2SuD1+FkGnqOl/BhNCYh172ThAAAgAElEQVR8gDXZyffih5w3z8V1nlkCi3WxYi6sueU3AL2iR/1+h+G7Ej5WaSLkTPgafimJa4HnM/DcLOVWsjE6JpIJg7AP7R0VPer8ZTFLYCll+2vPFGzP59H4IbfrROxTGWmX5wjpj9tLyJMP7w5rGuVu1AkQAULjbfkyNRE6EcUga1kCiz1hUWd6Yf/lfFnsoDuxA2HhXSPpN2DW8jJhLUuhmTvPzsBzsJZbyFZnWSQV38P2RZoZP2STrDS63p2RtLP9tfVR7M8pi8fJjgS+DjxJ8S6Ka11mAT8iHHqUT4P4XAZit5Y0F5iKZIJ1m9zv44dsUg08jd9N5H7y/yXRC3jDMYa0s/2150fYnlMdYc45y4YAZxKGlK15NLJQFhN+GR9L50PkR1ManZ9mQpIokbJUgX3v+cXRo7bbnnAinNdNJN+Fd6V2bHF7pmF7Xv8bP2STQbzXGSjGRYNty1Le6wy0zqK4Fb75KtIuK8hmDhORxI3C/gU6MHrUPtLKEpj1LYkeBmKfK/9m9Kj9DCB0Bu4E1pF+I2cty4GbgeOBhzMQj3d5BK0HkDJ0GrYvzkagR/SofSSRfKerfPND8c2odrnlBUjQSdifW6mc8NaD8Cv6FkJCmrQbO5X2yxkdvYGSDPW40vdTQhbAQk2juG/UwwlHig52qu9K4P918N8qCNv0vLZMPkv49b/JqT5PvySMsBRqJeE9afQJJzO6A0cSOkjHogNrAKiu7cHQMbsxaNRY+g7bmh79B1PTvScAm9bXs27lUla/O59ls19l8Rsv0bBhfRJhLCKM4q1KonL5IHUA0vcYYTV6oX5NthLPFOJE4A6nuhoJK9efaOe/XUhoGD3UE45qfd2pPm+vYNtv/g+yt6vBWw0wkdAZOIEwOlRWeg3agtGHHM3wXfejqia3wxobN23k7elPM3vKfdQtW+Qd0qVk5wyNkqcOQLpqCL1dyxD+WYTjSovdZOBzTnXNBvYgLDJsMZYwWtLT6RoXAtc51eVtOLAQ2/f7IsIxvuWiCjgYOJnQIR2RbjjJqqrpxpiJJzDywI9QUVlZUB3NjY3MefJB3njoTpoa3AbBlhG2ea71qlA6pg5AuvYiNEoW4wi/9opdH+AF/FYD3wR8fvM/1xD2jO/tVPd9wDGEecss+jT2raG7EJLVlKMKYH/CyMDJlNgK9V6DtmCv0y6kz1CfowpWzp/NtD/+kg1r3UbuLyFMjUrC1AFI13mEIfxCrSbMYTb5hJO6gwirgauc6juJkDnuSkIKVg9LgV0JpxtmlXU05V1gS7LbwYltD0JH4CRg55RjMek7fBv2O/OrdOvlu2t1/eoVPHPrJNYsWuBR3QzCd0wSVtjYj3jZz/j4Zymdxh/gceAax/puJNy4v+VY5zlku/GHMK9t8R/U+Lf2AmFh6TjCuorvErLwFZVeg7ZIpPEH6N53APuefjG1vft5VLcLhadIljyoA5AuawfgaZcosuX7hI6Nh8HA7fiNKNxEGFHIslGEOVSLhxziKFWvAT8gTCeN4v0piTOrqqYbe512YSKNf4vu/Qay12kXUlld7VHdaR6VSOfUAUhPH+yngk31CCRjNhH2A9enHUgbs4Evpx1EDqy//kEdgFzNAf6bsBV0G+BLhNGTzG2dHDPxBLc5/84M2Ho0oycc41HVRzwqkc6pA5CefbC//qXYAYDwK+sbaQfRSiOhU7Kmqz/MAGsHYC6hsyP5WUjYYjqRsAvjbEIq5Y1pBgVh6H/kgfHa01Hjj/SYCtgNv9wg0gF1ANJjHf5fALztEUhGXUdYbZ8F19B+XoGsqcDeAdCvf7slhMOhjgK24P0piaMbfcjRBW/1K0RVt1p2OOxYazWVZPMkypKiDkB69jc+vhTn/1trBj5LyA6WpufIbrrftsYRGhyLf3sEIv9nJXArIbfAIOC4zf9/dYyLV9f2YPiu1t8a+dtqj/FU13a3VjPOIxbpmDoA6dnX+PhnXKLItsXA+Slev56wpz71YdwcWX/9NxPmsCUZ6wgnFZ5J6KgdRzjgZ3lSFxw6ZrecM/x5qupWy5AddrNWk+vhXlIgdQDSsSX2TGOlOv/f1t8Jq+/T8HXCeoRiYe0AvAq84xGIdGk9oTPwWWAY4XyCG3Ae8Ro0aqxndbGvPcYjDumYOgDpOMD4+CbsGQSLyUXAzMjXfABbkqbYqrDPmWr+Px2bCJ+38wg/Dg4Bfgi8aa2477CtrVUUfu0tzNfWIsCEqQOQDuvw/6tEmkPMiDrCmQextlctBT5DcSXD2Qv7yXbqAKSviXBA2LcIv4BN22F7DBjiEVNBeg40t9/JJS0QQB2AtFgXAD7lEkVx8c4S2JkLyH62v7Y+bHx8IyENs2RHM1BrqcBhIZ7h2uZzt9QBSJg6APFVYj+UphwWALbnMpJf+zAZ+GvC10iCdf7/eRJcjCYFy3SGwYSpfUqYXuD4xgJ9jXWUywLAthoIQ/NJZQmcDXwlobqTVEs4SMlCq/+zqc7y4IYN673iKODa5q9pKnkTyok6APFZN+WuI5yWVa5eI6zO99ZI2J5VDNn+2joAsI63av4/m0wdgPrlS7ziKODaS61VFON3saioAxCftQPwHGHVcDn7Nf5ZAq8hrDMoRtbh/43AFI9AxN1Cy4PXLJrvFUfeVr9rvrbpuUvX1AGIz9oBKNfhf+mYtQMwFeMvTUnMXMuDl81+1SmMQq79irWK9HovZUIdgLh6EA65sFAHIGQHPMq5zm9hn0dPQ2/snUql/82mMYDpCL/Fb7xE46b4iSwbN25g8czp1mpe9ohFOqYOQFx7ADXGOsq9AzAW+HEC9VYBt1B8W48OBqy5XjX/ny0TgH8Q8n2YOqUNG9bz9vT4x4YsfOkpGjdusFbzokcs0jF1AOKy/lJbQnkf1VpDOEjFvMG4A6OAaxOqOynW4f96Sv9gqWJQDXySsMX3EcI5AS7359lT7qO5MVYOLWhqbGD2FPMSnWaK4wTOoqYOQFzWBEDluv+/xfeAfRK+xlmEk9uKhbUD8Bhg/qkmBetL2Hr6JvAnEvh81y1bxJwnH/SutkNzHr+f+hXm3QevU3zJuIqOOgBx6Qjgwo0nzNPHcCMwPNK1LAYCexrr0PB/OoYRElvNBX4KbJvkxd546E5Wzk9+8HDFvDeZ+fBdHlW5VCKdUwcgnkHAdsY6ynX+vw9h6L8q0vUGEzICVkS6XqEOw/4dVgcgrr2A3wPzCCNa1vMbctLUsIlpf/wl61evSOwa61Yt57k//YqmhgaP6u7wqEQ6pw5APPtha1CaKd8pgEmE+fmYjiKcCZBl1uH/lYS8EpKsCuAYwm6LacCnsS8GztuGtat45tZJiXQC1q9azrO3TmLDWpczyl6lfH/sRKUOQDzWBYCzgGUegRSZE4HPpXTtHxF2HWSVtQPwCPFOWCxH3YGzCdvZ/on9/TJbs2gBj19/BSvmz3Krc8W8N3n8hitYs9gtb8+NFNdJnEUr60OcpeQe4GjD4/9A+OVQToYB00n3XPBpwIFkL/vicEKmNMt3+GLg5z7hSCuDCaNHFwJDU46lXZXV1YyecAyjxh9JVbfCDhxsamxgzuP3M/Phu7yG/SHsdBqN0gBHUZ12AGVEGQDzUwHcRLqNP4STG78HfDflONqaiL0Dr/l/X2OArxLOlOiRciydampoYOZD/2De1IfZ4bBj2WqP8Tl3BBo3bmDhS08xe8q91K8w5/tv62rU+EejEYA4RhGG8C3GA086xFIsLgB+lXYQmzUCh5KtswImY5saWUQYRdBQq90E4BLgYxTptGpVt1qGjtmdQduNpe/wrek5YDDV3UO6jYb19dSvWMrqd+axbM5rIbugPclPe+YTOlHpHWEokoBTCTfaQstGwnxiuRhLyE1vec28yyyylSVwDrbn84f4IZeUasL3+hnS/2yWSvl8Xu+ASJH4KbYvxrPxQ05NDdm9qd6U4PPOxyjsz+UL0aMuDS2Je+aS/uexlMr9aERaStTj2L4cv4wfcmp+gN9NZQlwMtDgWOcpyT31nJ2N/XnE3lZZ7FoS9ywn/cay1MpiiiPxlkjeagj51i1fkM9Ejzod4/FtrD++ud4rHetcQvo3qz9iew5zo0dcvPYgHBK1kfQbylIsTYRzD0RK0l7YvyQ7R486vj6EeXavG8vkVnXXEKZRvOq+l/SGKysIOdK9Xhv5oJbEPQ+RfgPZtjQS0uQeSlgxn3Y81nJVju+JSFE6H9sXZCVFurI4Tzfhd1OZzQcX7G1P2F7kdY0LXZ997nbJI8aOSrnlk8hVLWEL3wzSbxjblvWEkYjWPwZatsqmHVuh5SY07y8lzvoF/Vf8kKM7Eb+bSgNhKqE9Fzpep450sgReVGC8LaWJ9KcwsmYIcClha2TajWLbsoiQh2JIB7HXEEYE0o4z33Ib5fHDRsqc9ddEqQ+RDSPMq3vdWK7o5FoVhOF7r2s9S/yc7ncaY34lcrxZtiNwPfY1OkmUVwmLPXPZ/lsD/C4DMedabiOFsxBEYutDmLOzfFlOiB51PN4N8jN0fWMZjm+H40rLC5CnKmCFMd5y2lHSkUOBf2D/biZRHiIkFMp3aLwCuCYD8XdWGoFvFvDcRIrSROxfmi2jRx2P95D8jjle93jH67ZkCYxhP4d4T4wUa9ZUAscCT5B+Q9jeZ+hu4ACH53kC4dCwtJ9T27Ka8L0TKRvfxPalmR8/5Gi8s/3le3TvZMdrx8oSaP08NQIDI8SZJX0J+fnnkn4j2LasBH4MbO38nLcBHs3A82sp96G8E1KG7sD2xbk9fshRVANP43eDKSSLWC/gDccYYmQJfMAYYzlllMxy4p63N8c2IKHnDuH7cArwVsrP88wEn6NIps3H9gX6ZvyQo/BOzDOswDgOwjfxUJLD67XYR0x+lGB8WbEXYZFZFhP3PEM4PyDmKay9gcuJ3xFaRhh9ESlLW2L/Eh0WO+gIksr2V6hiyRJ4qEN8H00otrRVAIcT5tGbSL+hb10agQcJ6w/S1J34OQ5Kef2SSKdOwn7jKLUetPew+28cYsrCdEQuvm+MawPh12ApKbbEPVkxjjAF4Zkds72ShXMzRFJhTdM5I37IicvqwjvvBYlJZAmcYoxpSgIxpaWYE/dkzTDgKODbwF+Bx4DX8NlJMCni8xDJFGsecY9ft1lyAn432UZggnN8FzjGt46QstdLL8IveEtMlznGk5bRwLX4dta8ykzgYqBnYs8+vluwvSbltOhU5P9UAquwfXnOjR51cobi+2vt8gRirAD+6RjjNKCbU2xHOcTj3WGK6WDgL/iuHfEqjxGGuqsSe/bpORfba7OJONtjRTJlHPYbyx7Ro05GEg1rUmlEh2I/aa918coS+GNjHHWE+fJi0pK450nSb+TblpbEPfsn9uyzweM+dnj0qEVSdhb2G3bMrUJJSivbX6GymCVwmjGO+x1iiKUPYSh9Luk39G3LasIUxDZJPfmMqcC+FuCy2EGLpO3X2L40pbJgy3tx3fmR4vZcrDgb226Ogdhz1hdDPolyT9yTVXdje+0ejB+ySLqsv9h+Ej9kd8Wyva49WcoSaN1O2gzsa7h+0vYgLDbLYuKe5wjbDMv55LpvYXsN11A6o5kiXeqO/Wb2yehR+/sBfjfiJBPsdMQ7YVGhe6J/abzuCrK3QE2Je4rHwdhf072jRy2SkvHYvzDbRY/aV9ay/RUqC1kCXzFe9+8FXDMpStxTfGoJ21otr+3F0aMWScnF2L4si+OH7KoPIUmP1415ctzw36eGkL/d67ncywenMYYRzhD4AfAnYCowjzAXvsnhmhd5vRgGQwjJcbKauOdSiidxTxoew/Ya/zl+yCLp+AO2L8s/44fsKqvZ/gqVRJbA/QgH83iuM+ioeCYkyteOwPVAfTtxpV1eAc4mTNlJ567B9lovjB+ySDqsv34vjR+ym6xn+yuUZ5bAmGUR8RZOtqbEPaXlWOyv+6joUYtENgj7oqYjo0ftoxiy/RXKO5lRrPKHJF6MDihxT+kagH0r6pnRoxaJ7GhsX5ImQiei2BRTtr9CeWcJjFGWE9akVCbwerRQ4p7y8DK29+KG+CGLxPU9bF+SmfFDdlFs2f4KdSLpN2qFlIeB7Z1fi60JKYpXZuD5tS1zga9Sesdpp+kGbO9JKZ5uKvI+92D7ktwWP2Qz70VyF8QNP2+eixxjllXAyQ7Pfy/C5zSLiXueAU5FiWeScCa296YJ6BE9apGIlmD7khTbftkY2+SyxnubY8zSRPjVnu+UQAXwMexHXCdRGoF/4HPmgnRsFPb3KqsjeyJmo7F/QQ6IHrVNsWf7K5R3oqPY5TZyW2OhxD3S2kJs75n3NJRIZpyK7cuxgeLak3wQvo3giXHDN7uC9BtBS7kL6NbBc1PiHmnPXyj8fdsE9I4fskgcP8V2Y3s2fsgFK6Vsf4Xynv5Io/ye90+5KHGPdOZ0Cn//Hk0hXpFoHsd2g/tV/JALVmrZ/gr1K9JvGK3lGsL8+V3Y93onUR4CjiH7a0PKQR9CqvJC3sdTU4hXJIoa7L+aPhM96sJ4boVrIMynF6NPkn7jWKplI2F0Yq+c3w2J5Szyfz8fRZkXpYTthf2mt1P0qPM3DPtOh9blirjhuxkDrCX9hrLUykrCLoWtc38rJAU/I/f39A2KZ3GvSEHOw37jSzJbm4cKwjY9r5v9M2Qv218uKoFHSL+xLKUyF/gKStxTTL5E1/k/7kaLNaUM3ITtBviv+CHnrVyy/XXlfNJvMEulKHFPcdsCuAx4ClhG2Mk0E/gtcFhqUUnOtLDGxwxgnOHxVwPfdoolCWMJ+fl7OtV3IXCdU10x9SUsWhzsXXHv6mo+PGwYBw0Zws59+zKiZ0/61YQBklWbNrGgvp6XV63i8aVLeejdd1nb0OAdQixNhHMjfoJWhoukSh0Auz7Yh/BPBO70CcddDfAEsI9TffcRVnU3O9UX0xXAdz0rHNW7NxfssAPHjRhBj6rc1kmta2zkHwsWcN3MmcxZu9YznCStIyTu+SlhXlhEUqYOgN2HCFuVLLYC3naIJQlXAt9xqmspsCvhVL1i0w+Yj9OWxe5VVXx9p5343OjRVFcU9jVsaGriN7Nm8d+vvcaGxkaPsJKwmLBd8jrC+y8iGaG5N7v9jI9fQHYb/4OAbznWdw7F2fgDfBanxn+73r35n/32Y8e+tjVv1ZWVnLfDDuw3aBBfmDqVJevXe4Tn5VXCavFbCWl7RSRjsr7yvBhYOwBTXaLw14cwZOu1f/cm4O9OdcVWQVi3YLZLv378/ZBDzI1/a3sNHMg9hx7KWMc6DR4iHBw0Dvgf1PiLZJY6AHal2gGYRDgBzMNs4MtOdaVhX2AHayXb9e7N78ePZ1BtrUNI7ze8Rw9uPvBAhnRPJVPuJsIBQ3sDH+a9Y7FFJMPUAbDZEhhhrONpj0CcnQB8zqmuJkL2sDVO9aXh49YKaququH7ffRNp/Fts2aMH/7PffnSrjPa1XgP8nHDK2+nAc7EuLCJ26gDY7G98fCNhe12WDCMM3Xq5iuLf7nW8tYJv7LQTO/fr5xFLp/YeOJAvjRmT9GXeAr5K6PxeDMxL+oIi4k8dABvr8P+rZOuXcQVhrt5rn/uzwOVOdaVlC0Lq34KN6t2bz40e7RRO187efvukpgKeJSTu2Z6wwG91EheRonc4cDPwJuFch5WEkc7vE75PkhHqANiU2vz/BcBRTnXVE4aFNznVlxbzYUUX7LBDwVv9CtGrupqv7OiWaLGJcFLgoYS1EH8mHOIk0tZQQrrwB4EzgdGEPCL9CPfKSwnrgS5KK0B5P3UACleJPTlOljoAY4EfOdb3deB1x/rSsrflwb2rqzluhHWZSP5O3mYbelWbd/k+Tjik6niKfxpHkjUCeJKuf0D0BK4lLDKWlKkDULix2A8vyUoHoIawX9sr1e99wK+d6krb9pYHf3jYsJwz/HnqWVXFxC3Mo60LUNY+6VoV8Cfy2zV0MWFxsKRIHYDCWYf/64HpHoE4+B5+qX6XEnYQlMo2MNPk/UFD0jsMzeHaIx3CkNJ3KiFpWL6uAXo7xyJ5UAegcNYOwPNkYy5V2f46N8zy4J1TTM7jsOtgS484pORdUODjhuKww0YKpw5A4UphAaCy/XWtl+XBW/cyPdxk657mGR39OpOu9MG2HVodgBSpA1CYHsBuxjqykADoWvyy/c2huLP9dcTUCPaxL8QrWN/NxwkbpNd7kWKxFbYfEId4BSL5UwegMHsQFs5ZpD0CcCJ+i3AaCVv+spTTQOxKZR2HJMe6v3UYfj9CJE/qABTGmgFwCeEXc1qGATc61nc18IRjfVmyzvLgNQ3pLfNYvcmcgkEdOunKW9g7igd7BCL5UwegMMU8/69sf/lZa3nwvLo6rzjSuLYy/UlX6oFXjHUUsoNAHKgDUJhi7gAo219+Flge/MqqVV5x5H/t1eb2e5lHHFLyHjc+XiMAKVEHIH+DsM9ZpdUBULa//M23PPjxpUu94sj/2kuWWKtQEiDJhbUDsBMw0CMQyY86APnbH9vCl2bgGadY8lFNOKDDK9vfA5ROtr/OvGp58L/ffZe6FNYB1Dc28p9Fi6zVvOYRi5S8x4yPr0DTAKlQByB/+xofP4t0hlYvwz510WIp8BnKY5X485YH1zU0cPfChV6x5Ozv8+d7dDxMnR8pG7OBt411qAOQAnUA8leM8//K9lc4c76G62bOpKGpySOWnGxqauK6mTOt1TQDUxzCkfKgdQBFSB2A/BVbB0DZ/mwWYlzlPGftWn4za5ZTOF274c03PXYAvAQsdghHyoO1A7APUOsRiOROHYD8jMK+fS52B2ASfok2ZlOa2f460wOHhvC/X3uN55Yvdwinc88uX87PXnOZuv+XRyVSNqzrAGqxT69KntQByM8BxsdvAl7wCCRHJxBO5vPQRMgcWE7JYSYS1gAcZq1oQ2MjX5g6lbfXmfIKdWrR+vWcN3UqG32mG/7oUYmUjRew3xs0DRCZOgD5sfZQX8SYWS4Pw4D/cazvKuBRx/qybEvgL8C/gR29Kl2yfj2fefJJ3kmgE/D2unV8+oknWLR+vUd1M4BpHhVJ2WjEvl5mvEcgkjt1APJTLPP/yvZXmCrgIsLq91OSuMBrq1dzzCOPMM1xOuDZ5cs55uGHed2e+KfFXV4VSVmxrgM4CPvZApIHr4Vh5aCGcHqe5RCgXxFGAZJ2IXCxU131wJGU/oKwvYF/EKZMEl2MVN/QwB3z59Pc3MxuAwZQU1lYP3xTUxO/njmTS557zvvMgf2B5aSTr0KKVzVwpuHxPYC/Es5KkQjU28rdXtiHRXcm+b3VYwlxeiX8uRC4zqmuLOoLXElIkRy9Qzyke3e+suOOnLzNNvSsyu3y9Y2N/H3+fH71xhvMr69PMrxbgfMInUCRrvQGVhA6AoU6F9+DyqQT6gDk7jxsme9WEdJdJrkhvIZwKt8+TvXdBxxD6Sb8OYWwS2LLtAPpVV3NxC22YPyQIYzr14+te/akX00YbFq1aRPz6+uZsXIlTy5dykOLFsXMLvgScDLwZqwLSlF7ljCaVqhbCEnGRDLlt4SGsNDyYIQYf2CMsXVZAgyPEHMaRgH34vdalXpZTegEiHRlErbPWryEGSJ5eBnbB/sHCcc3Hmgwxti6fDzheNNQQ1gbsYb0G9ViK02ENTCW4V0pfadg/6yNiB61SCf6ELa5WD7UxycYXy/CyW1eN/vfJBhrWg4hbG9LuyEt9vIwYYupSHuGYf+MJbIDR6RQE7F/qJOcZ77JIb6WMpvQ4SkVAwi/XK0dOJX3ygLgwHzeBCkrs7B9vibFD1mkY/+F7QM9L8HYTjDG1ro0AhMSjDWmCsKWpMWk32CWYtkEfDPnd0PKyc3YPlvPxg9ZpGN3YPtA/zWhuIYCi4yxtS6lkuxnDCGXfdqNZDmU3xOmoERanIPtM9VAaY1CSpFbgO0D/Y0EYqoA/mmMq3WZhi3JURb0AC4D1pN+w1hO5RVgp67fHikTO2P/TB0ePWqRdmyF/cN8WAJxXegQV0upwzHnfUqOwj73WEhZCJwG3JbCtbNUVgDHdfkuSTmoAJZh+zxdFjtokfachO2D3Ij/cNZYQqPtdfM+3zm+mIYTkofEbvAagRsImQQh3PQuSyGOLBVtFZQWd2H7LMXImyLSpauxfZCnO8dTQ8jR7nXTvpfizAjZcnDPKuI3dM/ScbbFTxB+DafdGLctqwi5KGLE9i9gSAevj5SHb2L7DK1BHUnJgH9j+yBPdo7nSmM8rcsSinNP9z6ERjiNRvQiuj4zYFvC0cmx4+uoTAG22xzb9oQDqZK+5jzCoUJSng7C/hmypBQWMavE/gvzHMd4yj3bXy/gGnxfg1zL3cDWecTasg3xnRRibSnLCJkP2x432J2Q7Cnp62urYPmqBdZh+/x4nWgqUhCP1ax7OsXSB99Fbt4jE0k7hbDgLnYjOhs42hB3X+D72BdF5dvwXwr06yK2C4ANEeK5Bb/TKaV4TMH2uflL/JBF3vNZbB/gOvzmsSYbY2ldZlE8+2zTOrhnI3AVfg1Xb+ArhC1zScU8gzBFkc97uz9huD7p1/NFwvSDlA/r+qm344cs8p7rsH2AH3OK40RjHK1LA2EqIeu6Ad8mnEUfu/F/FBiX4HPbE/gx4ajdJmOs0wk32gMM8QwhrLpO+nXVVsHy8jHsn5lR0aMW2cy60OynDjEMIyzW87oJX+EQU9ImYD99sZCyFPgccXdFDCZ08C4l5BKYShihWU4Ynt+0+Z/nA08BfyS8h8cCWzjGUUUY8bB2SLoqTZuv09VCSil+A7F/ns6MHrUIIavcRmwf3k8aYyi3bH9pHdzTRJin1tY1OIbQ4Uj6NX+Y4tyBIvmxnsB5Q/yQRXy2sYw0xlAu2f7SPLjnDZR2tK1YWwV1qmDpux7bZ+Tl+CGLhAVblg/uYuP1yyXbX1oH99QTMvfVJv4Mi4t3gokAACAASURBVJO2CoqHM7B9PpqAQdGjlrL3B2wf3LsN164GnjZev3W5n+xl+0vz4J6HyO5oSNacQ5ytgjpVsDSNwv7ZODZ61FL2rHvu/5/h2j8wXrt1WULIl58lE4HXiN/wv40WFRVib2AOyb8/OlWwNM3H9rm4Jn7IUs4GYV+9emSB1y7lbH9ZObhH8jeYMJKU9Hu1Cjg50nOSOP6M7TPhtZ1aJCdHY/vAFjpv1YuwKM3rZvqbAmJIQiVhKDmNg3ueRznpvVQRpm2S3qWhUwVLy0XYPg/rCWtSRKK4DNsH9o0Cr3uT8bqty2yyke1vT3zXM+Ra1hIWl2m/uT9tFZR87I39s3Bw9KilbFlTz95awDVPMF6zdWkkJNNJUzEd3CP52xbfY6k7KtoqWPyqgNXYPgfaKSJRVGDPvHdRntccCiwyXrN1uTzfJ+3sWOLkl29brAf3SH60VVBy9QC2z8Bd8UOWcjQa+w0rn7zspZTtL82De64lHLgj8Z1JnDMbtFWweH0P23u/nA8eay3i7lPYG6MeeVyvFLL91RDO7l6TZ7weZQrJHtwjudFWQenM4djfe33PJXE/w/YhnZrHtUoh298h2PN9F1KWEzod+lWQHYPQVkFpXy/CVI7lfT8netRSdp7A9iH9ZY7XKfZsfzq4R9pTQZiv11ZBact6uurN8UOWclKDfS4z10xzxZrtTwf3SC60VVDamoTtvZ4VP2QpJx77VcfmcJ1izfang3skH9uirYLynlOwv9cjokctZeN8bB/OlXQ9J12M2f50cI8USlsFpcUw7O/zKdGjlrLxW2wfzgdzuEaxZfubCLzuGHOuRQf3lBZtFRSwH7I2KX7IUi5exvbhvLKL+osp258O7hFve6GtguXuZmzv7bPxQ5Zy0Af7yuXjO6m/WLL96eAeSZK2Cpa3c7C9rw1k44wTKTETsd90tuyg7mLJ9qeDeyQGbRUsXztjf1+1E0jc/Re2D+VbndSd9Wx/OrhH0qCtguXH46yVy2IHLaXvDmwfyr92UG/Ws/3p4B5J07Zoq2C5uQvbe5nLYmuRvCzA9qH8ejt1Zjnbnw7ukazQVsHy8k1s7+NaNK0jjkZgv7kc2k69Wcz2p4N7JKu0VbA8HIT9Pdw7etRSsk7C9mFs5IMrU7OY7U8H90jWaatg6asF1mF7/y6OHrWUrKuxfRhfalNf1rL96eAeKSbaKlj6pmB77/4SP2QpVQ/h20BnJdufDu6RYqWtgqXN+qPrnfghSymqxJ70pvU51VnJ9qeDe6QUaKtgafoY9vdsVPSopeSMw/5B3GNzXVnI9qeDe6TUbAtMJfnPr7YKxjMA++iOzgoRs7OwfQjrCMOHWcj2l9bBPe+gL6MkS1sFS491QfIN8UOWUvNrbB/CRzfXk2a2Px3cI+VCWwVLx/XY3qOX44csxWQIcATwJeBXhAxSLxGOpFwObMB+o/gJ/tn+Lsjx+VUBF5HOwT3PAvvkGKeIp/2Jk73yRWD7SM+pHJ2B7f1pAgZGj1oyqyfhRL5JhIa+ieRvEqfjm8r0XnLL9rcPoRGO3fCvInQ6dHCPpGkIoUOf9Od9BXBcpOdUbkZhf3+OjR61ZEolcDBhKDqNX8K3OdaVS7Y/HdwjEmirYPGbj+29uSZ+yJIF3QkH48wifkPYung2xCd28Zw/ASxM4Tnq4B7JsuMIv9ST/h48iJJaefsztvdkSvyQJU09gUuAt0m34fcukzt5zqOA+1KIaSNw1ebXXCTLtgdeIPnvxDzCGgTxcRG292M9yjlSNo4lTp7w2KWjbH8tB/esTSEmHdwjxUZbBYvP3tjfj4OjRy1RbYv9DOmslgbCwUFtTSBsc4kdz1Lgc/gdOywS2/nESYR1Cxods6oGVmN7H9QZK2HHEycVaFqlbbY/HdwjYqdTBYvHA9jeg7vihyxJqyU0hDG28qVVWmf708E9Ir50qmBx+B621385Omq8pAwEniD9BjrJ0jrb3zhCRsHYMdQD3wa65fCeiBSjKuAHJP9DomnzdZQfI3+HY3/9tV6pRAwnZOBKu4FOupyPDu4RiSXmqYJbxHlKJaMXYWGl5XU/5wO1StHZEXiL9BvnpMu9hBvS7BSuvZCQT0Ck3GirYHZZs6neHD9k8TSC8mj8m4HHU7hmA/ALdHCPlLeehMYi6e/besIon+RmErbXe1b8kMVLf8pj2D+t8jz6RSLSmk4VzJZTsL/WI6JHLWa1pPOLuByKDu4R6dh+6FTBrBiO/XU+JXrUYvYL0m8oS7Ho4B6RrmmrYHa8ie01nhQ/5OKWdra3k4Hbk75I78F9GTl+J0bsOZrBo4czYOvB9BzUh249QwrpjfUbqF+2hhXzl7L0zbdZ8MJs5j7xKmuXrk46tCTMAb5IWGgoIl2rIiTk+i+SvSc2A1cDlxISfcn73UyYminUNMIx6ZKjNDsA2xJW5PZPovIe/Xux6/EHsPvJB7HV7tvl/fjm5mYWvjCHl/7+BNP/8RTrVtYlEKWrTcB/A1cS5jZFJD/HERqhRO5JrfwL+BTh+G95zzmEY90L1UDIpLrWJ5zSl2YH4C7C4T6u+g4bwPhzPspepx36f7/wrTbWb2DaHx7hiRvvY82ilS51OptCWHH8ctqBiBS50cDfgN0Tvs58wpz10wlfp5jsjP0e9hFCB0tykNbisOMJ6R/dVFZXst9nDueTN36RkfvvSFVNtVvdVTXVbL3XaPY9fSJV1VXMnzaL5qYmt/oNVhCGLS8gpBAWEZsVwO8Ii9L2SvA6/YDPEo7cfjzB6xSTpYR7mWXXxBxCMibJQRodgJ6EBWpuw2yDRg3jjFsvYc9PHEJ1N7+Gv62qmipGHjiWMRN3Z84Tr6Q5LdBMGKo8DvjP5v8vIj4aCCOUiwi/KJO6qVQS0uCOJixE3JTQdYrJIdgylDYAtzrFUvLSOEDhfGCkV2U7Hbk35/zzewwft61XlV0avsu2nHvPZYw9Ys9o12zlVeBDwFmEHrOIJON6wrHc8xO+zhnAk2irINhHQw4guQ5byYk9AlAL/Ano41HZHqcczEk/O4ea7jVd/7Gz6m417HzMvtQtXc3b0+fGuOQ64CrgdJT1SiSWhYRjsncn2QZ6C8KUwExCJ7+cfc7w2G6E0Zt3nGIpabE7AOcAp3pUtPenDuP4H51FRWV66xgrKivYYeLurF20kndmvJXkpf5DWDD5N7R9SCS2dcBtm/93Isktnq4lLAwcSFjIlomFRpEtBr6G7Vf8K2hxZU5idgAqCb/+B1gr2unIvTnhp19ItfFvUVFRwQ4f2o1Fr85n6ax3vat/G/gC8A1gmXflIpKXxwlptY8Cuid0jQpC2u7xwP9Sflt6G4GPAtsY6lgD/NUnnNIWcw3AocAoayUDRw7lhJ9+nsqqNJYvtK+yqpKTJp3L4FHDvKpsAm4EdgL+4lWpiJjdTZgOeCbh6xwOPAccmPB1sugx4+MPcYmiDMRsRc+wVlBVXcUp111Abe8eHvG46tarlpN/cR5V1S6DKncC5wJFmYpQpMTNAw4jrA1I0gjC9F+5nSpoXQg4DIcfm+UgVgegB3CStZIDzz4y6mr/fA3fZVv2P+sjHlV9hOSGGEXErh74zOayLsHr1ALXUV6nCj6Off3DwR6BlLpYHYAjCIkvCtZ32AAmXHScUzjJOfQrx9N7iOmpQtglcbhDOCKSrFsIowFJbxX8NPAE5bFVcAX2nRAHeQRS6mJ1AD5krWD8OR91S+2bpNpe3Rl/7kc9qjraoxIRSdxUQtbApFPQ7kZYe5D9X0J21nUA6gDkIFYHYKLlwT0H9Gav0w71iiVx+3zqQ/Tobx6tm+ARi4hEsZSwev0qks3M2Z+wRugHpJfKPQbrOoCdCdsppRMxOgBDgF0sFexy3P5F8eu/Rbdetexy3P7WanYmnFUuIsWhEfgO4ayTJE8NqwC+TdgmOCTB66TJOgJQgUYBuhSjA7AXxsQZu59cfO/j7ieNt1ZRAezrEIqIxHU34Vz6FxO+zuHANELegFIzh5AHxaL4Go7IYnQALAc70GtQX7bcbaRTKPFstccoeg/ua61mrEcsIhLdLEJe+skJX2drwq/lbyZ8nTRoHUDCMt8BGHXwTlRUpJ/xL18VFRVse4C5/Ta9diKSqvWETJ5JbxWsBq6h9LYKWtcB7Iu2U3cqRgdgjOXBW+0x2iuO6EbsaY59B484RCRVMbcKPk7pbBW0jgDUEqZipAMxOgCm/LiDRw/3iiO6waPNqYEHe8QhIqmbCuwJ3J/wdXYnrAs4OeHrxPAiIa+/haYBOhGjA9Db8uCBI4d6xRHdwJFbWKtQB0CkdCwDjiFs4Utyq2BfwmE4xb5VsBF4yliHOgCdiNEB6GN5cPe+Pb3iiK5HP/N03BDgdMJOiuwdgCAi+WoEvou2CubKug7gIJI7vrnoZb4DUNu7eNdwdLPH3g24lTCkV0/YFvMgcC1wDiHfdSkt+hEpFzpVMDfWdQADCTlVpB3VaQcgeRm+ubQ9J+Ad4GXglVb/+zxQFzU6EcnHPELGz18QdgskZQTwKGHk4YcJXicJTwEN2Nqqgwj3RWkjRgdgLYaUjBvrNtCjf3H2UzauXR/rUuoYiBSn9cDZwBTgepKb6mvZKrgr4ajxYrkH1AEvYFvNfxBwo084pSVGy7oaQwdg3co6j7z6qVi3KvXvWHsdg0ZClq3WHYMXUA9ZJE23AK8BtxOS+yTl04TU7B8H3kzwOp4ew9YB0NHAHYixBmCt5cHL5y7yiiO6jMZeRdgnfDzwX4TkITOAhYQhQtOaDREpWMupgg8mfJ2WtQfFcqrgE8bHjwK29Aik1MToALxrefDS2aaHp2rprKKKfUvgCsKCoV1TjkWkXC0FjiL5rYLFdKqgdSEgaDtgu2J0AN6wPHjB87O84ohuwXPFMsL2PtsDD6EshCJpadkqeCywIsHrtGwV/DdgTlqSoHcIZytYqAPQjhgdgNctD57z+Ks0NyfZEU5Gc3Mzc596Le0wCjWYMCdZ6P7ZCmAccPTmMs5Ql0i5ugfYg+S3Ch4KPEu2twpa8wFoHUA7YnQATK1g3bLVvP3iHK9Yolnw/CzqllmzWKbqAPKfI+wDfB9YQFhXcM/mMoOQB/17GDNDipSZeYQG+paErzMC+A9wfsLXKZS1A7A7uvd8QIwOwPMY57Je/Jt1DUh8L91RfDG349N5/O2uhNzdl9L+gputgMsIOw/2NEcmUj7WEU4UPB/YkOB1aoHrCJ2NrKVgta4DqCb8qJFWYnQAlgDTLRVMv+spNtYn+bn3tbFuAzPunpp2GB5y3XqzHWHdwHY5/O3WwL8onRPLRGK5npA4KOlTBc8grLzP0nf0VcJZChaaBmgjRgcAQuNQsHUr65j2h0e8Ykncs7f9h3UrU88B4CGXoxgrCQeP5HNw0UDgNgpfF1BJSO95LHAkYZ60eHNGi+SuXLcKNmPfDqiFgG3E6gD8x1rBEzfex8a67I8CbKhbzxM3/m/aYXjJZRHDicDeBdS9H3BCno/pRVhjMI+QuOguwmEnzxPyTcwkbG26ijB9sSc6RElKT7luFbSuAzgApb9/n1gdgAcJGQELtmbRSh659h9O4STn4Z/dydolq9IOw8uMHP7mNEP9p+bxt+MI8VxKWE/QVnsJjp4jdGLUMZBSU46nClrXAfQmjGzIZrE6AOsIKS5Nnpr8AO/MeMshnGS8PX0uT/826ZG5qP6Zw9/sZ6h//xz/bjQhV/rIAq6hjoGUsrsJa3VeTPg6hxNOJc31O5uEZwlnJ1hoHUArMfdmHwo8bK1k4MihnHvPZdT2ztZ9ev2addx4zGUsf2uxR3VXADWEee5xhMV1sTprLZZtvm5X0wDrCauHC7GBrufuKwjznpZc4Plo76yEVwjbWddFikEkXz0IiwTPTPg6G4CvAL9O+DodmYKtEf8r8AmnWIpezA5ABeHwiVHWisYesSefuP6LVFbFbhPb19TQxJ/P/QWv/+sFj+peB3bi/XN7PTb/u5YOQdIdg2bCYSF35PC3iyl8aHARMKyLvzkxxziSpo6BFIPzgEkU3inP1a2br1Wf8HXauhr4luHxb9P+FGJZip2d7Tyceo57n3YoH7v6M/+/vXsPzrI68Dj+DZcEkiDhWgSMUArowlJRB2u1iG1xqOsFquKutLp1pezWllZb163j2mlru+t2RWrLrHVFratYrCKoW121Iiy10lUCEuRmuF/kkvsVyJt3/zhkhkaT903OOc95nze/z8wZZ5zkvOd98/Ce33OecyEnJ+wGc8lkkhfvfJx1S1e7qvKbwKI0f9ZHMEgA8zHrgdOxGvhcF19rFTAtxc/8Bri+i/VHQcFAMs0UzJ1usefX2UD0pwpegXnsYWMMsMNBW2Iv6t4zD/PBOzmZ6dy/nsoVP70p2EhAS3MLL931a5ed/yHMxWm7hrCrwWAD8G1Mx5yu7wE/61oz+S6wIMXP7MHv8ai+KBhISIOBJcB0z69Thdmk6AXPr9NqIGZvGZsv/Zvwv7NiLIS4fb4duN9VZWddNplZD8yNfE5AU20jz3/nYVfD/q2+DTzossI2Tg0GZ2OG7nMxB228DrxN55cV9cPcAQzt5O8dwUzOS7U6pIHsmpinYCBR6YlZNnsXfr/rk5ih+Xsw17dvpZgbmq56GJjnqC2xFiIA9MV86aWza1xaBo4aynWLvsHpE890VWWHDmzcxbO3/oerCX+tdgPj8bvVpy/XAUtJ/3rqzByDI3Ruk6G4UjAQX67E3PEWeX6d14EbMP9mfXoIuw58EzDRUVtiLdQDdBfPcf5Mz149ueBr05l220xyC/zMfzlW38SbDyxn7WOv0dLc4rr6WZglaXE1HzOcn2rDkARmpCPdeQ62s37jTsFAXBgDPIf/dfB7MTcEaz2+xlexG8JPYm4qKtw0J75CzqBbjlmb7VThkP58dt4Mzr/hUmdB4Hj9Md55aiVv/epl6o5a7WfUnhfw8FkEMA0zA7m9L5n1mM6/M5MmnD4yyiIKBtJZ2bJUcDT2k/iuwvFNaByFDADFmA5hgI/K+xYV8JdXfYZJX76QEed8stOrBZLJJPtKynjv+T9SumItjdXe9vavxHSYvg/4iEoPzGYh04HWZzK7MLtB/gno7NBJEbCN8LuQxYWCgaSSDUsF92M3mfw+7JYTZoWwa+jMXvDLfLejYFA/Rl14NiMnj2Hwp4YxoHgo+QMKySs0e9Acq2uiobKOyj2HObr9IPtKytj19hbqy9PZCt/atZihOWnfbMxywNDXa5wpGMip4r5UcCl2G/qsoevLl8WhhZhnMt2xhNpNK47mA82E/5tlW0mgLZG7q8HAq/i/xipxf6rgfEdtO4aZC1AGvIcZqVwEfAu4DI08epeLmegV+osw6rLy5HuX9F2KeWwU+m/XHYqCQffQE7gX82jO5/XUgttTBc/13N5T270Bc6N6Jbr+vRgAbCT8l15UZStmQwvpvBzMud4/BFZghhYThP+bdpeiYJCdrsTcqfu+fl7DzV11L8weIlFf/9XAYszZNrF/JJlJb2AE5rznM0M3xLPdmIsnc481jJ+oz0qQj2rBzMzWHIP4inKp4LWYScFdlY9ZahhyPf8OzC6ojxHP/VsyzjjMjPHQdzm+yh4cHIYkaeuLGSr8CmanMo0YRF80YhAvfYHH8X9dNAH/0IX25WOWBn8YQRvTLftPtknXtAMjyM7HAe/TtfPsxT0Fg/Dl1GDwL5hgcC76Es0Uf4/ppH1fB09gOvV0XIMZOQ197bZXdmAepYilAWTXxMBV6Jl/HCgYhC+Jk5+5gkF4U4imw12PORekPWcAr0TQDldlOf6XV2a9XOAB/M9O9V0eRLP9407BIHxRMAgj9FLBOUQzOdF1qcDscyOWZmI+zNB/0M6WKsye2JK9FAzCFwUD/0IsFczF7JMS+vqyfT8LyeAbwExaBdCRMzB30nFJVMuBW4EDoRsiQWhVQngtmJ0PS4HNp/x3M1qV0FVRniqYR/bs1LcGM7pRGbohbcUlALT6K0wQyNSZ9GXAP5LeMbfS/SgYhKdgYCeqpYLZphSYgVkxkDHiFgDAfIl+HbgDs2IgExzGDJH9CjgeuC0SPwoG4SkYpK8vZnj+ptANiZndmO2Ft4VuSKs4BoBWeZgL8A46nkHq01ZgAebUK31JiGsKBuEpGLQvqlMFs8luzE6mGTESEOcA0CoHuBhzxvV1QH/Pr1eLGQL7L+BNOn+8rYgtBYPwFAyMqE4VzCalwFQyYE5ANgSAU/UBvgB8/mSZhJsvxC2YpTD/g+n0fZxvLWJLwSC87hgMBgNLgOmhGxIjazB9VdBHxtkWANoajNl2dBxwFjAeGAr0w8xkLcQsOanB/OOsxAzR7MVM6HsXWIdZ0icSVwoG4WV7MOiJOaDrLrK/X3FlIXBbyAboDyXSfSkYhJdtweAKzONR30sF0zZ0YB7TzhvEBROKGD+qgFGn5zN4QC4FfczJxPVNCY5WHmfXwQa27KrjT5uqefPdcg5XeD/fJwl8GbNsPAgFABFpS8EgvNZg0PZ0xTgEgzHAs8A5oRow8LTeXH/ZcL5y+UjOP7vz08KSSfi/96tY8sp+lr56gIqaEx5aCZhR509jRp0jpwAgIulSMAgvLsEgyFLB4UP6cPuc0dx8VTEFfXs6qbO+McHiFXtY8NRODh5tclJnG8uBWT4qTkUBQERs5QJj+WgwGI95NizROMhHg0EJUB+wTTcCD+F5a+ZePXOYd82Z/HDeOPrl9/LyGg1NCe5/cgf/9kQZx084X/x1JfCS60pTUQAQEV80YhBeJowYeF0qOLa4gCd/PJlzxp3mo/qPKNlazZy7Syjb53Qx2A5gIhGP4igAiEjUFAzCizoYeFkqePUlw1h8zyRvd/3tqalv5uYfbeDF1YdcVvsd4OcuK0xFAUBEMoWCQXg+g0EhZtt0J48DbplZzIN3TKBnjzDdWKIlyTfvK+XRF5zN39uPmUDpfflBKwUAEcl0mmOQGWznGMzDzAewdsvMYhbdOdFFVVaSSbj1vo0sXuEsBMwDHnZVWSoKACISVxoxCC/dEYMczB4Hf2H7gldfMoynfzo52J1/W4mWJNd/f52rxwEfYDauS7qoLJXM+ARFRNxRMAivbTA4DtxjW+nY4gL++NhFkT/zT6WmvpnP/O0aVxMDpwL/66KiVBQARKS7UDCIsd69cliz+KLIZvt3VsnWaj53y1ucaLa+eX8EmOugSSkpAIhId6c5BjHwva+O4SffGB+6GR268xebWbhkp2011cDpRLAkUAFAROTjacQgQwwf0ofSpZc4293Pl9qGZibMXsWhcuuJ/FcA/+2gSR3KrAcpIiKZoxFzGui6Nv9fIwYRu33O6Izv/AH65ffitr8ZzT/9cottVZcSQQDQCICIiBsaMfBgUP9ctj9/aSwCAEBdY4KxM9+wPUBoPeYoe680AiAi4kZ7IwYKBhZmTz89Np0/QGHfnsyePpyHntttU80kzO6JR9206uNpBEBEJAwFgzT84dGLunSkb0hrS6uYOvct22ouA15z0Jx2aQRARCQMzTFIYciAXM47K16dP8CUCUUMHZjH4QqryYDjUAAQEelWjmM20NmEOUWvVbcLBp8/fzA5MRynzsmBqZMH8uzvD9pU433NowKAiEg8tBcMsvZRwpQJRaGb0GUXTCxSABAREa+y9lHC+FEFoZvQZeOKC22rGOaiHR1RABARyU6xHzEYMzK+AeBTZ+TbVtHPRTs6ogAgItK9xGbEoKhf7xAv64SDtisAiIhIJDJu8mFhjNb/t9WvwLp7VQAQEZGgMi4YiBsKACIi0hXpzDFYjAkKXVLb0Myg/l3+9aBq65utq3DRjo5k1IQPERGJvdY5Bk8Ch2wqqqq17kSDqaq1OgsAFABERCTGjtj88o799a7aEbkP9jbYVqEAICIisXXY5pe37opvANi2p862ig9dtKMjCgAiIuLLAZtfXrupylU7Ivf2Ruu2b3XRjo4oAIiIiC8bbX555TtHSSZdNSU6ySSsXlduW40CgIiIxNYGm18+UnmcdzbHbxRg7aZKjlQdt61GAUBERGLLKgAAPPm7/S7aEaklL1u3uQUocdCUDikAiIiILxXAdpsKnnntAPWNCUfN8a+uMcFvX7c6BRBMcLJ+hpCKAoCIiPj0ss0vV9ScYPGKPa7a4t3Dy3ZTUWO9B8DvXbQlFQUAERHx6Xe2FSx4aid1MRgFqG1oZuHTO11UtdJFJakoAIiIiE+rAKsF/QePNvGTxVZPEiLx40e2c6j8mG01VcAbDpqTkgKAiIj41AQ8b1vJL5bupGRrtYPm+LFuSzWLntnloqrfYj4z7xQARETEt0dsKzjRnGTO3SXU2B+y41xtQzM3/mA9zQknmxY84aKSdCgAiIiIb6uBLbaVlO1r4OYfbSDRkjm7AzUnktz0g/Vs3+Nk2+IPgD+4qCgdOrNZRESi0AuYYVvJtt31fFh+jMsv+gQ5OQ5aZSGZhFv/tZRn7Jf9tfo+8K6rylJRABARkShsAL4GnGZbUcnWGnYfbOTyi4fSo0eYFJBoSfKtn23i0Rf2uqpyH/B3QGTLHRQAREQkCs3ACeBLLip7b3sNGz+oZcZnh5KXG+3T7Oq6ZubcXcLSV63OOmrrn4G3XFaYSuABFBER6UbyMDsDnuGqwjEj83nq3slMHt/fVZUdWrelmjl3l7Bjf4PLasuAiUQ0+7+VRgBERCQqCWAPMNtVhZU1J3j8xX2UV5/gwkkDvI0G1DcmuO/XZcy99z2O2h/009aNwGbXlaaiEQAREYnaMmCW60o/MSiP22/4JLfMKqawr5v727rGBP+5bDcLluzkcIX1Jj8fZxlwjY+KU1EAEBGRqA0H3ge8jNsPPK03s6cP54YZI5gyoajTqwWSSXOk79OvHGDpqweorLXe2789FcCnMRMAI6cAICIiIVwP/Mb3iwwpyuWS8wZxwcQiBrC43AAAAedJREFUxp9ZyOgR+Qzq35t++b0As4lPefUJdu5vYMuuOtaWVrF6XTlH3A/zt5UErgZe9P1CIiIimWYBpiPsjuXfHXx+IiIisdQbs0tg6M446rLq5HsXERHptgYDmwjfKUdVNgIDnHxyIiIiMTcC2EH4ztl32YvDPRBERESywRjMbPjQnbSvsgsY6+rDEhERySbDgfWE76xdl1JgpMPPSUREJOsUASsJ32m7KqtOvicRERFJIQ/4JeE7b5vSAtyPZvuLiIh02tXAUcJ35p0tVcC1Hj4PERGRbmMk8BLhO/V0y3Poeb+IiIgzX8ScHxC6g2+vlAGXe3v3IiIi3Vge8F1gP+E7/NayF5gP9PH4vkVERAQTBOYC2wnX8W8Hvg7ken6vIiIi0kYP4GLg58AR/Hf6VcATmMcRsT9NN/ZvQEREBDMqMB34AjANmIQJCDZagA3AG6eUJss6M4YCgIiIZKOBwPnAOGD8yf8OAwoxh/EUnPy5OsydfS1wCNgGbAG2AiVAeaStFhERERERERERERERERERERERERERERERERERERERERERERERERERERERERERERERERERERERERERERERERERERERERERERERERERERERERERERERERERERERERERERERAP4fPCyOKgPjNuQAAAAASUVORK5CYII=;" parent="1" vertex="1">
          <mxGeometry x="950" y="520" width="140" height="140" as="geometry" />
        </mxCell>
        <mxCell id="aitId8dFWl2rubIfRfJI-87" value="Machine&lt;i&gt;&amp;nbsp;&lt;/i&gt;Learning" style="text;html=1;align=center;verticalAlign=middle;whiteSpace=wrap;rounded=0;fontStyle=1" parent="1" vertex="1">
          <mxGeometry x="930" y="660" width="180" height="30" as="geometry" />
        </mxCell>
        <mxCell id="aitId8dFWl2rubIfRfJI-88" value="" style="shape=image;aspect=fixed;image=data:image/png,iVBORw0KGgoAAAANSUhEUgAAADAAAAAwCAYAAABXAvmHAAAACXBIWXMAAAsTAAALEwEAmpwYAAAAqElEQVR4nO3PsQ2DMBRFUcsZJCkZLhmCzIIHIcgFHiEpYAB7AoqfJrRIXwbZIvdKr3/HGCI6vNhZn9xFNIudHUwtac+n30wtASgdgNIBKB2Ao5Ox8RIa0WzpbxUBlOfXJQA7BcAByAuAA3BygEytl/kpqn3uFQFm5fl1AHYKQACQF4AAIC8AAUBeAAKAvAAEAP8OmNpBff792Dy/9NfN89HZ124AohP3BSYf9LbLrpGaAAAAAElFTkSuQmCC;" parent="1" vertex="1">
          <mxGeometry x="950" y="110" width="80" height="80" as="geometry" />
        </mxCell>
        <mxCell id="aitId8dFWl2rubIfRfJI-89" value="" style="shape=image;aspect=fixed;image=data:image/png,iVBORw0KGgoAAAANSUhEUgAAADAAAAAwCAYAAABXAvmHAAAACXBIWXMAAAsTAAALEwEAmpwYAAABG0lEQVR4nO2XvQ2DMBBGbwHvkSY70GUIKOhpqIAmE6SAOqFIJglVZskWF50UJAr+DhuM8T3pkyWL4nuyLWwAoZ+8fARFVSON4CK5CFiAyrbJyntKAjR252HPFFWNU7FaEJ+AlDVWIL7ekAI2BXTOQCwCM/BKgEssAj1FuQFGUW7AKwHnt5AJgW92xjZzvo9FYAYisIVAPvIHtSEQJu8gShqkUVuAA1dgCD8E8oX3+G7JpYGB0p2kf4G0O2/kJbWWQJQ0OJVjrYDzZ8Abgc/phJQ1BNTlhRRtgTFsCBhFBEZQImBYgIsyKdAW5YZTlBvwSsD5LTSEVwIh8w+qRGAGhxcINe7xaguBKdgvqb2h9ZLaG0bv8TYQAQHc4Ae5P0HpVg3nAgAAAABJRU5ErkJggg==;" parent="1" vertex="1">
          <mxGeometry x="1032" y="120" width="60" height="60" as="geometry" />
        </mxCell>
        <mxCell id="aitId8dFWl2rubIfRfJI-90" value="" style="shape=image;aspect=fixed;image=data:image/png,iVBORw0KGgoAAAANSUhEUgAAADAAAAAwCAYAAABXAvmHAAAACXBIWXMAAAsTAAALEwEAmpwYAAAIR0lEQVR4nO1Ze4xUVxm/rdi09VFbtOzc75vZbB8byyqIWChQFAwpuLSJ1VqrtQVRq1Ex1Tb2LaZRqLykD1NbAxrTELqiUJg5Z/YBQ6EsUGfOuQuz95y551yW5S20vCmvwJjvziwZMf1zZ+cPfskkc889Z+Z7/r5zvuM4l3EZtQHPDxulto9KZVcKbfYXi8UrnFpHVvd8Vmo7T2pr6CO0fS1XsA8IbU9sDoJPOrWKbdt3DRfKbhcqPOip4BURBEMr3wttCp5vP+fUIqQ290tt9pGQQttjFC5S2/ekMh1S2/miYB6WyqwhTzi1iI1z5p6KQqdQAFJEKjMx6++ICW2/JpR5Wii7WShzQepwqVOLSA8bfqp15MhsEmC0p+1XpTZ7SSF6J1T43cgb2v6acqImE7lt2LDJHPFkCrGHIx5sHzVarn/s8SPvzFuQ37JilZXrO8fRPKlMFyno1CIY4r0MYG86kRjLXPeejubm5W2j78gyAMUAznKAD1qHDe9aO/372zniD1Ox2Lh21x3s1BKY605jiEHrkCEfo+fViMAB1nFEmQZoZwBvtjY1/ZYDLOaImzjAYQ5wiAPsYK47O404pQXxmoFVAmAJA3gljTiKA+zjiM9mHGdQKh7/EkcUffNSrtvIEP/JAI5wgNPcdV9giBkOcJTG0wDfbHGcj1RdgfabbrqOLMvi8RMMcXbL0KFX0Ximvv5qEm5VLHYtA5hLlmeIsxjiTIa4um99GvGGFMDDHHEzQ+xlAAvYLbdUtwCmAZZygHfJ4hzxGENMcoAfU6IzRMUB3uCJRIzmMsROjvidvrU8Hm9iAE9S6KUATnHEInPd3dx176+eAohTOOIa+p5MJK5niA9yAJ+EIcFYIhFV6TTAcAawJ1NfX8cAHuUA3RxxFwP4C4UQB3iaI7akASYyAEOhtSoW+3S/K9AWj7sMYH9ZmRs4YgcD2MYRNzCAX3LEHRxgRarkIcEQ36PcIWZyyuhoaBjCEQ+kY7GonlByM8QXGUAPAxjWrwrMcpwrGeK5NoBbyfLlP36LwihSynXv5gAnOeIFsmzrkCE3Vq4vOs4VHDFFOXLpbxMFEzn0uxIM4AxZkAM8lHbdeNnKzVEIAeQZwI40wI84wDJ6TtbV3XZRSICnOMCGD2MhygeqOcm6uvr+YyLE8xxgK4VFxPukEEBIf55EnMUBWi8qizgjsqrrjuAA32CIOxkA0jvyDgeYwF33JwxxEa0rs9NZjvh6vyjA4vG7GEBnCvHn5UJ1Ju26zxCVkpAM8T+XWo+YiJe89D5HXMgAVtK8ci1ZwxD/zOPxX3GAqRSaVFv6RfhIAYC/RlyPuIlRnLvuZmKWlYMHf4IhagZwH82jGpFsaJjEE4n50dwSbXaTpRniA+2xWKLfhPxQ4ePxmxniibI1SaCFEYMA7ClX2jcYwCPEQlSF28eMfb+juXkZhRp5yBlIEHtEdAmwO2IdxA6yMqur+wxH9HhDw9l0Y+Pp1i+MSFLI0GZOKvOMUOYFpxbAEZ9jiBtTrruQA/w7CfBQuQofJlrcuOilfaKr+2WpTa9QZoNQwX25ILxHKsMGWnaHA3yLikwrbRPi8V3pxsajbXeOP7h26tQnaHeaz+evEtqeyfT0XJ3JZAaVjqF2k1Bmt9R278AK77qTGADF/J4UwOm2UaPe3vLm8pxU5nmpzYs0h05oQtmwch0pIbQ5RIoNmPBJxC/zeJw2bBeIYWh/Q60Uqe0TW3x/sFB2V5dvvhgd7LVtoTW5QuE2ocwaoW1eKjOBzsstxWL1t87p22+fyevrz7fdOf74O/MXtNNYJLQ2h7bke+ro2fPDu6WyVmrzD6Htb6KekTJHhLbPUVjRGVkocz6b3XNtVYVfN33GnPYJE89s+N3vlwltXxc6+AGNR0Iq+/fKuV0FO11qe04qe1Zos4S6F5XvKYSy2exHqyb8xjnz/rjp1dcO5XwzpiSAWSyVnZ5TypXKHvS0bujzhlT22XKr5aBQpktos5XGcsqO3Lq19/psGF4nlfmgasIL304TKthf2WUjgYSyC4Wyy4Qyf+gqhOMpD0oJapYIZZJS29k0N+sHd1BilxjInibrC20OV0f4bnsrWfj/2oZBMFQqc1Ioe5SSVmizTfjmKc/aG4k2pbIHaG3ffAoXqewjQtndnrZtwg86qqKAp8y/hB+socoptJkrtVkutQmktsekNufImtIP7vof5Xw7TWq7jr4Xi8UrpQofJDqVyqTIi0KZx6W2L1VFAaHMIanMn0oKhE9GxajbNMlCuEEo81iZ9/dKbb5O7FK2tM0qM5lyhHqnpAxRZ99vkhGEby+eifsVUpuT+Xz+45VjEato+1ZfyzBqLSrjSWXelcr8TWobSm12RLzvB1+pXEtrpLZ7+ii33yG0XVvZYS5Z3XbLnp5PVQq1NeydJJSVUtsiMYz0bUtOmymXcr1QZiwVM6dayPlmDCWpFwQjaCNGSZjr3l5PFxeyYO8tVWDTKwvhNqHogiNcRLc0FOdCmfVSmVNSWT8KG21flgXTQQXNqSY8ZSZ72h6IChOFhjY9QtvjUtm3iXm6VPj5Ui7YTtq0Va4lD9AcotccUawyx7P5sPqHli2mt0loK6QyKqfMTM/zol4ogeiRFKNqS6xDHvBUOENqs7TcZt8kdPBTT9lfCG1XOQMJQRcY2qwu3ciYV2XBLo4uMko3Mxsjz5S8tETq4HtUqWld586d11CoeYXCaKcWkM2HCanNz4QyvVFlVXYfsY5U4fOeNt+W2o7LBsHNtHUoFTY6hdkVTi0ik8kMigpUafs8j7YX5A2qB+W9/wn6UPIPtKyXcRmX4dQm/guvH+Rcw0PJ2AAAAABJRU5ErkJggg==;" parent="1" vertex="1">
          <mxGeometry x="184.5" y="29" width="48" height="48" as="geometry" />
        </mxCell>
        <mxCell id="aitId8dFWl2rubIfRfJI-91" value="Sql Server" style="text;html=1;align=center;verticalAlign=middle;whiteSpace=wrap;rounded=0;fontStyle=1" parent="1" vertex="1">
          <mxGeometry x="209" y="47" width="80" height="30" as="geometry" />
        </mxCell>
        <mxCell id="aitId8dFWl2rubIfRfJI-94" value="BI &amp;amp; Reporting" style="text;html=1;align=center;verticalAlign=middle;whiteSpace=wrap;rounded=0;fontStyle=1" parent="1" vertex="1">
          <mxGeometry x="960" y="200" width="140" height="30" as="geometry" />
        </mxCell>
        <mxCell id="aitId8dFWl2rubIfRfJI-95" value="" style="shape=image;aspect=fixed;image=data:image/png,iVBORw0KGgoAAAANSUhEUgAAAgAAAAIACAYAAAD0eNT6AAAABHNCSVQICAgIfAhkiAAAAAlwSFlzAAAOxAAADsQBlSsOGwAAABl0RVh0U29mdHdhcmUAd3d3Lmlua3NjYXBlLm9yZ5vuPBoAACAASURBVHic7N15fFT1vf/x9+fMJGETFSW4gda6EupyI4ZMok2ttrV1QZITREXRtpFMiNvP23rb2zat11ZbK1pIgrG1VusCE8Ct2rq0uZIFxKhXJdYNF8CFHYRAJjPfz++PJAgYYJI5M5/vTD7Px4NHF/XM6/Ym53zmLN9DUCrB8t3rBzvYPgZwxgA8hgmjARoB8AhmjAAwgtD1r91/yKOPjgJYD2AdgPUMrAPTeiKsI8I6Y3gliD9kH3/YOdysaq2r6/Toc5VSynpe7WjVAHf6RRUH+fxmnEM4EcDxhmkMAWPQ9SdbOC8WUQAfA/gQjA8A/gjAu8S+1z8fMujN1x64fatsnlJKeUsHANUnuW7Z/oPYd5IBjSWHcsA8FsA4AKOk2xLIAPgAoDeYsAxs3iBQ2yasaVsWCoWl45RSqj90AFB75Lqu72OTfYIhziUgF4QCAKcCcKTbLBFh0NsENDJzk8PU2jS/ug0AS4cppdS+6ACgdsi7tHJ4Rmf068wIGPAEAp0GYJh0Vyoh4FMGljCwmIiaN/HqxXqWQCllIx0ABjDXdX2f4OBTDOFsYjqbQWcCnCndlWbaCWhm4uccxnONodqXoWcIlFIW0AFggCmcXHEcG/4Wg84BuAjAcOmmAWYliJ5l8LN+9j23KDRrjXSQUmpg0gFgACgorshhH7tgnAcgV7pH7WAI3MKEJ0D++ua5s96TDlJKDRw6AKSpnQ76UwAcJ92j9o1BbUQcIuaHm0K1b0n3KKXSmw4AaSQwOTieDS4nYBKAw6R7VFxeBVDvIPJAY6juI+kYpVT60QEgxeW73x9ByCwBqBzAKdI9ynNdlwmA+7cMGvqgLkiklPKKDgApKMd1Mw+kkd9m0FRmngggQ7pJJcVmgB8zhPsXz6t9Hvo0gVIqDjoApJB8N3iMQ1zBTFMBHCTdo+QwqI2Y73Uy+d7Gh2o3SPcopVKPDgApoNANFjLRNcw8CYBPukdZZTvAITLObU3zq5dJxyilUocOAJYqmjZtUMeWIaVEuBHA16R7lP0I3EREtzXOq3kSenlAKbUPOgBY5syLg6M7o1xJoB8AOFC6R6WkfxPxXZ9nDX1AbxpUSu2JDgCWKHTLxhj2/z8QygAMku5RaWEtCNUdHJnZGqrbJB2jlLKLDgDCApMqjoTDN4BwNYAs6R6VltaBMDsznHlnw6N3bpSOUUrZQQcAIWe6M74SAd8E8FUA/NI9aiCg9SCepYOAUgrQASDpug780V8CdAn0jn4lYwOB70RHx8ymx+/9XDpGKSVDB4AkKZp43QFhf+dNIL4Weo1f2WEdAzdnrcmubmioikjHKKWSSweABMstK8vI2uC7EqCbAWRL9yjVi38z889b6mtD0iFKqeTRASCBJpSWn+0w3QkgR7pFqRg8D+DG5lDNq9IhSqnE0wEgAQqKZ5zGjrkDwBnSLUr1UZSB+/zRyM8WLaj7RDpGKZU4OgB46KSpNw4dtm3bz0B8I/QGP5XCGNhKxDcfzmtvD4VCUekepZT3dADwSGFp8HzDqAYwWrpFKQ+9TMa5umn+7JekQ5RS3tIBIE757vTDCXQXQMXSLUolSASMmkzCTxtCNVukY5RS3tABoJ+Kiqr8HSNXVxBwM4D9pHuUSjQG3neYK5rqa5+WblFKxU8HgH4ITJ4+Dsa5H8Cp0i1KJR3j4UiUKl9cWL1OOkUp1X86APQNBdzyHwI0E8AQ6RilBH3GTD9oqa9+UjpEKdU/OgDEqNAtG2Pgvw/AN6RblLIEA3TPlkGDb9DXDiuVenQAiEF+SblL5MwBeIR0i1IW+rcDvqwxVNsqHaKUip0OAHtRNPG6A8KZ4dlgXCrdopTlIiDccjivuVnXDVAqNegAsAeB0oozwfwwgMOkWwa4bQC2d//7LQA6d/vr+wNwuv/9gcmKUr0jcJPPR1NeeKRmhXSLUmrvdAD4MgqUBG8A4VYAfumYNLSRgI8M8CGADx3mjwFnDcDrCc76To6udxxeBwxe3xKaua3PW6+qcore+nhExGSMYJgRbHAQ4Ixg8AgQjSLwGDCOBHAkuoY7XbHRe2sM8SWL59U+Jx2ilNozHQB2kndp5XBfOHKvLuoTt+0A3gRjGROWEdOb8EXfi/ozPlry4KzN0nE9ioqq/OERaw6HH0cCfDwYOQTkcNfLmw6V7ktxUQC/aA7V/BoAS8copb5MB4Bu3c/2zwdwnHRLitkEYAkxlhiiV4yJvDHGWb881a8D57vfH+FwZg6DvkYO8piRh66fDf2d6RN+0snA5Y0P1W6QLlFK7Up3ZgACpeWXMdMcAoZKt1iOCXgdhBZmLDYOliw+MfstVFUZ6bBkKLyk/MBoJ+URYQIx8hgIABgu3ZUClgMo1tcMK2WXAT0A5JaVZQxanzGTiSukWyy2EkTPMvhZ6jTPNy+cs1o6yBZFRVX+7dlr8xyYc8A4B8Dp0PtG9mQbgGBzqOY+6RClVJcBOwDkumX7Z8EfAnCOdItlOgH+J8h5yhA/u3huzZvSQaki79LK4b4O8w2Q+TZAFwA4XLrJNgz+XUvOqJsGylkjpWw2IAeAvEmVR/h80ScAnCLdYontAD8H4AlE+FH9lu+NguKKHPaxC8bFAI6X7rEFAQu3b49c1vpEXbt0i1ID2YAbAAqLK/KMw48BGCXdImw7gMeYef7WwUOf0qVcEyvgBk8BcTGYLgZwjHSPNAaWGH/GhUsevusz6RalBqoBNQAUlAQnMeEBDOwX+bQy8ECWP/Jgw8N1a6VjBqJCtzzXwCkDeAoG8KukGXjfj+h5i0J3t0m3KDUQDZgBIN8NXkvAHfhi1bgBg4BPmTEPhD/rndj2KJo2bVDHlsHnO0RlDHwTA+j3cSefE/Pkpvrap6VDlBpo0n+HU1Xl5L+xupoI06VTko3ATYZxV9baUQsbGqoi0j1qz/KKrz7W5/NXgnkaBt5ZgU4i/mHTvNq/SIcoNZCk9QDguq5vJWf/iYivkG5JHgoT4TFmzGwOVbdI16i+Kbjgqv04K2sKQNcBOFG6J4mYmW5oqa++UzpEqYEibQeAc8+tzNo0LPoIgInSLUmyGoTaTsacpaGaT6VjVJyqqpyCZZ+dx3CuBfgs6ZxkYeC/WkI1t0p3KDUQpOUAkHt+2ZCsQb4FAH1buiUJ1oBQE83w3WHTOvvKOwG3Ih8wPwHoe0jT39ldMN3WXF99k3SGUuku7XYmRW5wWBj02AD41rQaxHd0bIvO0uepB4aAGzyFiH7CzCVIw9/dXRBqmsdmV+qCQUolTlrtRE6/qOIgv5//DuA06ZYEWgXm2zKHbbun4b77tkvHqOQrKJ5xmnHMzwk4X7oloYj/eDivnZ7qL5ZSylZpMwDkTbl2lC/S+RyAcdItCbIFTLd1dHTeod/4FQAUlJSfwUS/BzBeuiVhGA9nrs2+XJ9iUcp7aTEAFE287oBwRvifAE6VbkkAA/CDvmj0x4sW1H0iHaOsQ/kl5SVEdCuAo6VjEoLx1+Zx2Vfo5QClvOWTDojXSVNvHOrnbU8DdLp0i9cIeC5qeNLi+to5H73ZukW6R9lpZdtLbcNzjpqThaHrCJgAYJB0k6cIJ41e2z5mxbKlj0unKJVOUvoMQL57/WBCx9MAvi7d4rHlDFS0hGr+Lh2iUssZbuXICJvfEfHlSPHf790R4/am+pr/lO5QKl2k7BmA3LKyDP92no/0ep1vBIzZmQS3MVSj66OrPvuo7cX2lW1LHx0z9rR/gmgCgJHSTZ4hBMbknMYr2l76X+kUpdJBSg4Aruv62rfv91cAF0m3eOhlB3xhU33tvR+0LQ1Lx6jUtqLtpY+yC0+t83fQVoDOAOCXbvIGfWNMzuntK9qWNkuXKJXqUu8UYVWVU9C2+s/MuFw6xSObAPqv5pyRd+tNTioR8otnnECOmYP0uVTGIFzdPK/mHukQpVJZyg0AATd4J4BrpTs88i8HkWmNobqPpENU2qN8N3gNAbciPW4SNAAmN4dq6qVDlEpVKTUABNzyMoDulu7wwHYQVzWPHfU7/davkmnC5OCJjsFfAfyHdIsHtgN0lr70Sqn+SZkBoKCk/Fwmehypfy3zDQBTm0M1r0qHqIGpqKjKH85e/d9g/DdS9D6gnayF45vQPHfWe9IhSqWalBgAAm7wFACLAAyTbomDAdPvNtHqny8LhfQmPyVuQumMAmLzAAFfkW6J07IORApaQ3WbpEOUSiXWDwAFF884jKNmMYDR0i1xWMfAZfpcv7JN3qWVw33hyL0AFUu3xIPBDZux9ts6XCsVO6tP/+WeXzbE56O/AzhRuiUOL/vhnNMUqn5JOkSp3a16/cWOFW0vhY7IGb+BgG/C8n3CnhDoqEE89PAVbbpaoFKxsveXvarK+cqGbfMApPBrffkBxqBJTaE/rJEuUWpvVrYtXXJEzmkvOKDvIFUvtRFOHT12/LYVbUubpFOUSgXWXgIocIO/YeAm6Y5+2kbE5U3zav8iHaJUX+S70w8nOCEA+dIt/WSI+bym+tqnpUOUsp2VA0CgpOJCEC+EpX37sIqNOb9l/pxXpEOU6o8c180cjpE1BHxfuqV/aL3xRXMXPzLnA+kSpWxm3QE23w0eQ8BSAAdIt/TD6w4i5+nCPiod5LvBawm4A4Aj3dIPrzKyAi2hmdukQ5SylVW/2EXTpg0iYC5S8uDP/4hm+gr14K/SRUuo5i6QKQXQLt3SD6c41DFTOkIpm1k1AITbh9YgJVcoo7rMNaPOW/LgrM3SJUp5qXnenPmOobMAfCbd0lfMuDpQUn6ldIdStrLmEkCgNPhDMOqkO/rIMHBDS6jmLukQZYeCkvIzAOd4Q+Ydx+d7p+mR2R9LN3mhsLj8aOPQ3wCcIN3SR+1Rw/lL5te+Jh2ilG2sGAAK3fJcA2pEar2kJMLgK1pCtQ9Jhyh75JcEa4kwfaf/qgPAKoDbwM4ykFluCMv9USxvnF+7XKqzP4qmlB0cjvj/gdQ7S/duByKn6UqBSu1KfAA4aeqNQ4dtb38ZwHHSLbGjMDFPaaqvWSBdouwScIPPoWtBnVhsALCciJazwXKQWe6A2jozfa/Zejkp1y3bfxB8f2NQgXRLnxAebJ5Xc5l0hlI2ER8AAm7F3QCXSXf0QTuTM6ll3ux/SIco+wTcig8BHuPBpr4YDsBtbHiZj7DcD3qrIVSzxYPt91vu+WVDsgb5FwL4lmRHnzFNaa6vfkQ6QylbiA4A+aUzvk1snpbu6IMtgLmwOTTnn9Ihyj757vWDCR1bkPibazcQuI3RdUmBDZb7CMujGNSWrMfeutcKeJiAScn4PI9sdBA5WZ/UUaqL2IH3DLdypEH0NQYOkWroG1oPh7/TPLdmqXSJslNg8vRxMM7rggkRAB8w8A5A97SEqhcm8sNyy8oysjb67gfTxYn8HI892xyq+TYAlg5RSprYY4BRRGtS5+CPzXrwV/vCxnescIIfwDEEnEvMCW9pravrPJzXXoautTtSxTmB0opK6QilbCAyAOSXVlwFoETis/thG4Mv0IO/2pdkHHRjxcCnyficUCgU7TgwMhXA35LxeZ5gvi0wefo46QylpCV9AJhw8fSjiDlFVuiiMBGVtIRq/1e6RKUAx54BAI6TtIV7WuvqOhlZLoB/Jesz4zQIxrk/x3UzpUOUkpTsAYCcqPNHAMOT/Ln9EWEyk5vmVT8lHaJSBJM1A4CPKClnAHq0hGZuywQuALA4mZ8bh1P3x8j/lI5QSlJSB4D8kuBUxP6MtCTD4Cta5tU+Kh2iUoo1A0CHiSZ96d6GUM2WDkS+A6A12Z/dTz8rcMuPl45QSkrSBoB89/sjiPC7ZH1ePLqW99UV/lTsXNf1AfwygHcAdArnmKFrstdKfHBrqG5Tpj/yHQDvSnx+H2UZYA5S5zFkpTyVtB/8fDf4x9R4vzjVNYeqr5auUKmrqKjKHznoszERH452GEeDKYcIYxk4GsBRSPzg/VlzqEb0CZsJk4MnOgZNAA6U7IgFgy/VgV8NREkZAApKys9gov9N1uf1FwNPZ63JvqChoSoi3aLS00lTbxw6tH3LcY7PdywbHAcyxxHoZAZO8vBjXm8O1Xi5vX7Jd8u/TnCeAdj2m+0+czL4xMaHajdIhyiVTAk/IHetGJb9CoHHJvqz4vRKJnCm9DKramApdMvGGPgXAMj1cLPPdC92Iy5QUn4liO6V7tg3PfOnBp6E3wOwP2f/KAUO/h/7fbhQD/4qmQpLZhQZ+F+Ctwd/AJz0GwD3pLm+9s8AbpHu2Df+wYTSGan1giOl4pTQAeBMd8ZXQPzTRH6GB9oBfO+FR2pWSIeoAYMCpeU/NmSeAzDS640naxGgWDWHan5GRCHpjn1wHDa1XTdzKjUw+BO58U42txJhUCI/wwMVzaGaV6Uj1MBQ5AaHdRLdy8xuoj6DmKw5A9CNM5ivCgNjAeRIx+zF11bRyKsA3CMdolQyJOwMQGFxRR4REraT8wbXNodq7pOuUANDYHLlV8NAcyIP/gAAx55LAD0aQjVbHIcmAdgs3bJXjP/Ju7QyFRYqUypuCRsA2DG/h9V3/dOL+2/xXy9doQaGfDf4HZjoUgBfS/RnGcsuAfRonFv9NhNfAbvfxJft74jeKB2hVDIkZADILyl3GWTxDTW03g+6+OmnZ3VIl6i0R4HS8h8T8CSS9Ew8sc+6MwA9WubVPsqMO6U79oYJN555cXC0dIdSieb5PQA5rptJoF97vV0PGQZf+kKo+n3pEJXeitzgsDD4PjAVx7kpRh/OplEkYu0AAABZa7N/FB65OhfAmdItezA4EsWvAFwpHaJUInl+BmB/HDwDwDFeb9crTHRbS6jm79IdKr3lu8FjwkALEPfB/10wftmHvz/SfPIhIssAx6qhoSrCMJcAtF66ZS8uL3TLPX48Uym7eDoA5LvfHwE4Nj/29+pmXl0lHaHSW0FJ+bkEvAggrnfOM/C0k8GnA1jTh39sNaqqTDyfmwwtoTmrCByU7tgLx4Buk45QKpE8HQCIM/8fwCO83KaHOhjO5ctCobB0iEpbFCgt/zETxXu9n8F0W0tO9nmND9VugIPsPvyzVp/+31lTqGYuCA9Kd+zFNwtLZhRJRyiVKJ7dA1A08boDwhS2dqJnppta6me/Lt2h0pOH1/u3gMy05tCc+ajv/m+Ys2O9BcC2RYD2pYMjFVnwFwI4UrqlN4bMzwE0SHcolQienQHoyOi8HsABXm3PY8+3jBv5B+kIlZ7yiq8+Ngws9uR6v2Pym+fNmb/bfx/zGQBKoTMAQNfrg4l5KoCodMsefCNQWmHrzYpKxcWTAaBo4nUHEPgaL7aVABv9PlyZCtdFVeopKK34rs/xvYg4V7hj4OnMzszxzXPnvPHlv0qjYt0OpdgZAABoqq9dRIyZ0h17xPxz6QSlEsGTASDsD18LS7/9M+MmXedfJUDX9X7mJxDfz/6O6/0Nj965cQ9/T8xnAIx9ywDHxFDWzwF+T7pjD75ZUFJ+hnSEUl6LewDIu7RyOIis/PbPwJKWcdm6rrfyVMEFV+2X7wbrwXQr4vsd2gIybnN99U37OEMV+02AFi4DHIuW0MxtYLL3HiKCzU83KdUvcQ8AvnC00tI7/yM+x3e1nvpXXsorvvpYkzV4MQGT4tzUO2RoQi/X+3dx7rmVWQD2j3WjTgpeAujRXF/zDIEeku7oHX1bXxes0k1cA8BJU28cCsDK9fSZ6HeNc2f9n3SHSh8Bt/x7Psf3IoHHxrmppzI7M09vml+9bF9/49b9o9nowyqADkdT8gxAj4jff4OtCwQ5bP5LukEpL8U1AAzb1n4FgIM8avHSB1uzBt8iHaHSBgVKy38M0OPw4Hp/c072+Xu53r8LE+W+rAGACCIpewYAAJY8fNdnIL5JumMPvptfPOME6QilvBLPOgAEwgzPSjzE5Ex/7YHbt0p3qNRXcMFV+yFr0F+YcVGcm/ocZK7c5fn+GDAjuw9vAQi3hP60oT9xNmmeV/PHgBu8HEChdMtuyCGeAdi531Oqr/p9BiC/dMa3AJzoYYtH+MmWebP/IV2hUl/h5IrjTNbgxYy4D/7vkKHenu/fJ6bYHwEEeDXsftVurJiNuQaAdffvMPGVXUueK5X6+j0AEBsb7/yPknFsPX2oUkh+ScV5xnBSr/f3ivu0DHBKn/7fWcv8Oa+AYeMNgUMImdOkI5TyQr8GgLziq48F8B2PWzzAdf3e0SoFAFVVTkFJ8FdE/Dj6cPd9L5hBv+rL9f7eOD7fP0B0LRP9hpn+QsDfAbyOrhX/dv+2vzqOXuswmZsAtEt3fBld47quT7pCqXj16x4An89fCWbPXyUcp887Qb+SjlCpq2jidQeEl63+KxO+F+emNoPp8pb66scQim9D3U+y9Po0S25ZWUbmBiebHOcwh3FIlHlzfJ9ml5bQnFUBNzgTsO4Z/CNX0sHnA3hUOkSpePR5ACi44Kr9mPmKRMTEg4FfLw3VpM0pUJVcBW758WGEFyL++1reIUMXJeNMVGtdXSeAVd1/0lImcGsYuArAodItu2BcCx0AVIrr+7f4rEFXABjufUpcVgBZd0lHqNRUWBo8n0FLEP/BP77r/epLGkI1W5jxS+mO3RGoqKC4Iq73Pyglrc8DAHdN45ah37SEZm6TrlAphwKl5T82jEcR5/X+vj7fr2IXHhG5l4H3pTu+hHiadIJS8Yj5CWMACEyePg7GeT1RMf30SebQ9qMb7rtvu3SISh15l1YO94Wj9wO4MM5Nfc6gK1pC1Qu96FK9C7jlZQDdLd2xm886DoyM7r4Uo1TK6dMZAI461n37J+DXevBXfVHglh/vC0eXIP6D/zs+RCfowT/xOg6M/hnAB9IduxmVuT7j29IRSvVXzDcBFhVV+Ttp9RTLVhn5xCDrT9IRklzX9a3k7EoiLgBjsUNYEkVWq14S6V3ADZYw8GcAw+LbEj0ezXSmNj9Yk1Z33tuqta6us6C0/DZmqpVu2RmRmQbgSekOpfoj5ksA+aXlE4nJrm86RNc2z6v+g3SGlMLJlScbY+oAPn23vxRh0NsE0wqgkYzT1DS/ug3psUpcf1GgtPxHYPoN+njpazcMpt82jxv5E33TZHLllpVlZG3wvw3gKOmWL1A40995eMPDdWulS5Tqq5h3hAE3uBDAxAS29AkBnxpkHT0Qv+nmnl82JGuw/0dg/ARARoz/2GYCv87sNDoON4U7qfnFhdXrEtlpi3z3+yMImQ8BFO/pWr3eLyzgVpQDXCPdsYsB/kVEpa6YBoDARdOz4XdWIvaDTTL8d3OoZsC98a+gtOK7zFwNb74FLQe4iUGtPqB1A9a8uCwUCnuwXWvkFZef5HNoIYCj49zU2z5EL1oUurvNiy7VP+eeW5m1aVj0I6BPSyQn2svNoZpc6Qil+iq2AaCkvBJENk24233wjVkUmrVGOiRZ8qZcO8oXCf8OoKmJ+gwGtjrgV5mplYFW9psXFj8y54NEfV6iFbjByQb4EwFD49zU3zI7My/TR/zsECgpvwVEP5Hu2JkP0RwdDlWqie0mQKLiBHf0DeOhRfUD5uBP+SXBqRTpvAOggxL6QcBQBhWAUEAAKOog4AY/AbgVRK0G3Eg8qMn2yy6u6/pWcfYtDP4R6fX+tEN+XzVH+UaAM6VbekTIVwxABwCVUva5cyyaUnZwOOL/BP18b0AiOI7vlO410tNaXvHVx/oc/xyAz5Ju2Un3DYZoZOYmh6nVphsMu673Zz0M4Ftxbkqv91uswK14kMGXSHfs5JXmUM1/SEco1Rf7HAACpcEfglGXjJhYMLihJVT7DemORMotK8vI2ui7AUy/BJAl3RODTQQsZUKTA7RK3WCo1/sHjkK3PNeAXpLu2IXjO6Z57qz3pDOUitU+v9UTY5IVX+16ENJ6zf+CkvIzeAPdjfjXpU+m/Rk4G4yzDQC/nxFwg7vcYLjtwMiSRK6YFiipuJiJ/4i4r/fzkx2IXtYaqtvkSZhKiMZQbWvADbYAyJdu6cEcvQjA7dIdSsVqrwNArlu2P4POsuTsLgCsOoLXPiEdkQhFE687IOwP/5IJM9CflzTZ52iAjiZgqgGQtcG/pcAt/7+uGwy50WRkvrDk4bs+i/dDeq73g7y63p+t1/tTBtUCbM0AQIxJ0AFApZC97jADpeWXgemBZMXsCxP9pmVetVV3/3ohv6TcJaLZsOvRpmTovsEQjQ5TU19XMDz9ooqD/H5+GMA5cXZ8zsSXt8yr1de7ppB89/rBhI6PARwg3dKNo1HfmCULZq2UDlEqFns9A0BMdp3+j9L90gleOtOd8ZUoTA0D35FuEXIoQOeBcZ4BQOiI5LsVMd1gWDi58uSoiS4E8JU4G942DiYunlv7ZpzbUUnWEpq5LVBaXg+mH0i3dCPHH7kQQLV0iFKx2OMZgHPPrczaOCy6zoNnqD1B4KamUG2hdIcXioqq/J0j11zP4CoAQzzaLBOhjozziIHJBXE+QBMAHO7R9qV8BtASIixhji6mjvBSZA66gAl1iPN/OwIWomP7FU2P3/t5vJGjb7x/HINPiXc7yUTA5ytuv+Ix6Y545JcEA0Roku7YyTPNoRp9QZBKCXs8A7BpWGcBwbHi4N+F/ixd4IXA5OD4sFldB8DLg8WbDlDWOK+msfs/N/T8hbxJlUf4fNEJAOUTTB6DcgEM8vCzE20UwBcw4wLAAWcNigLwxblNA6ZfNNVX3wLvbnC5EIT/8WhbScHAewBSegBoqa9pDrjBfwM4Qbql25n57vWDbV8rQylgLwMAwTnHltP/DGyNZvpC0h3xyD2/bEhWVsbPYfhGxH8A69EJpjv23+r84umnZ3X09jd0X4+s7/7TdfbhoDXHs2MKABQynFwCn4j4bqBLpnj/t9vMxFe0hGr0en+aYOAvBPxGuqPbIHA4AOB56RCl9mWPAwADZyczZG+IsXDJg7NS9rWr+SUV5xGhGuAxXm2TwE0ObmQGugAAIABJREFUTNmi+r49q97QUBUBsKz7Tx3Q9bRHBvnGO6BCMOcCVADgQK9aLfKWcXCRXu9PN+YBwLkFljw9Q103peoAoKzX6wBw+kUVBwFs0apWVC9d0B/j3eAhGeDfAuzl+v2bGPhFc86oWV49rtb9zPtz3X/guq7vY5N9giHOJSAXhAIAp8KSHWz/dD/fP1ef7083LaE5qwrc8hbuGlzlEVvz5Umpvel1APD5zFkA2bKzb+/o6HxWOqKPutbvB80EMMK7zfKT0ai/fMmCWSuRwAsioVAoii/OEtwPAAUXXLUfZQ062RAXgFHYfYPhwYmr8Iw+3z8AMLAAgB0DAHDqGW7lyIH0sjKVmnodAAgU73PVniGiv7U+Udcu3RGrwOTp42CcOgD5Hi6g9DHIXNM8b858rzbYV913yjd2/7kNAAounnGYiUQLCFRIxLkMZ7xNL2gBsBlMlzfXVz+GlDyHpGJlfLzAidLtsONeFseQ+QaAedIhSu1NrwMAE8624bcIANhggXRDLIqmTRsUbh9yEwz9l4cHQQPQH6lj241ePKrmtaZHZn8MINT9BydNvXHo8O3tp0aBXALnAnQmgCOF8rqv91fr9f4BYPEjcz4IuMGXAeRKtwAAw5wDHQCU5b40AJzpzvhKBCbexVW80hHNcp6SjtiXQGnFmeGtfDeAE7z61k/Aa2SorHF+9RJPNpgErz1w+1Z8cZYAQNdZAjIm1xgqIDKFyXgMkYEnwohM1ev9Awsxz2ciKwYAMNn0Bk+levWlAaAT0Xyy4iwaAPCzNt/9X3hJ+YGm07kVzD+Ed6cet4Hw24285tfL5ofCHm1TTPdZgo8BPAF0PYYYGfnZyVFQIYFzux9DHOvRxzGYftsybqRe7x+AyOfMZ8O/lu7odnTelGtHefG+C6US5UsDAJEzAWzLCgD2fvvPLyl3TSdVAzzSw83+L4GvbppX+5aH27RK92OIrd1/AABnTCo7lP3+0wyQS4wCBgLo+yp/er1/gGucW/12wC1/D6CvSrcAgK8zMgEpvtCSSm9fvgeAeYJAR+8c5xnphN0VFpcfbRyqBfAtDze7AeCbmkO198CiVy8my6IFdZ+g6wzBE8BujyESFTBQuI/Fit5i40xsmT/738lqVtZ6BkC5dAQAsIM86ACgLLbLAHDuuZVZmxA9SSpmNx80z531nnREj6KiKn/HyNUVUeAWL9+PQEQhh50KfWToC709hph3aeVw6oyc/sViRU4A4BE7rvfP1+v9CmA4zxLYigGAbPoypVQvdhkANg6N5hKQJRWzMyL8Q7qhR8CtyA9jdR0B4zzc7HICTW+aV51qaxyI6L4XZMdiRaiqcgrfXHNM49zqdzAAz5qo3mV1ZvwrnBGOYB9vOk0GBk4vKqryd1/2Uso6u/ySOA7ybLn8zzDiB8Zct2z/LPb/CuAKeLd+fwSMmkzCTxtC1Vs82ubAU1VlGoG3pTOUXRoevXNjwA0uBZAv3ULA0MiodTkA/k+6Rane7DIAMCNPKmQ3UebOf0kGFJYGzzeMahBGe7jZV8k4P2yaP/slD7eplNoJg54lsPgAAADRaHQCdABQltpluV8GTpcK2c0rLaE/rZf68PySivsM43HAs4P/FgauOxxrTtODv1KJRWTPi3jInn2qUl+y4wxAkRscFgaOEmz5AqNZ8uMd4kUMXOHR5p5ClIItC6o/9Gh7Sqm9YM5cSgiHrViWmsjL+4aU8tSOMwARQzmwYx1tMLHo6ndNoZp7Ef/rPD9jxhXNoZrvNevBX6mkaQnN3Abwa9IdXXgsLNmvKrW7HQNA1IccyZCd+QwWCydw1ETLAWzvzz8L8AORCOW01Nfc73WYUioGRC3SCd2GBSZVjJGOUKo3OwYAYmsGgDWN82uXS0csmX/3OwT+TR//sXeZ6ZzmUO3lLy6sXpeQMKXUPjEb6S8RO5Dfmn2rUrvY6SZAY8UPKUP82/8OG7H2VnQtRrMvnWC6LXNo+9da6qutuQFJqYHKgrOIX7Dny5VSu9hpACArfkgJsObtd8tCobBj6PsA9vZimWYydGpzffVNDffd159LBkopjzXOr11OwKfSHQBgdABQlnKArmVWARwu3AIAIKJXpBt21ji/egkR7unlL21i4LrmnOwzmuZXx3KWQCmVXK9KBwAAEesAoKzkBwBf2NjzBEAkplPuSRXJ8P3IF46ehx1DEj/p91HwhUdqViAkmqaU2hPGGyB8Rz4DPS+ysmSdVaW6dF0CIGPF6zMBfN68oPoj6YjdLXlw1mZmvh7AJwDc5lDt+S88UrNCuksptWcMbpNuALqWBM6bcm22dIdSu+saAJiOFO7osQyWTskt9bWhju2RY5pDNfq2eaVSgY/ekE7o4UQ6bNnHKrWDAwDk7Xr3/UdszS9sb1qfqGuXblBKxWZL5pA27P0G3uSx50uWUjt0nwGAFT+cbBzrrv8rpVLTaw/cvhXAB9IdAABHBwBlHwcA2LuX3sSFLLlmp5RKDxzbOh6JZ8mXLKV21rMOgBVLVUY5+r50g1IqfRDDin0KgazYxyq1Myff/f4IAPtJhwDgwft16J31SinvEFvyIi6jZwCUdfwwGUfuvB6gFAI+S+eV9PjayS4TXSbd0RfM+Nh31yPl0h1K9Rvxh2AbljjRewCUffyOz3cos/yTdwawZFJPFDoewAXSFX1BhHelG5SKB0X9H7JjxYMABxRNmzYonb/kqNTjGMMHS0cAADjdBwClVLI5DlmzX+ncPmyEdINSO3MAsuKH0gGsWwFQKZXaFoVmrWFgq3QHAJgoDpJuUGpnDjl8gHQEABjQKukGpVT6IcCSfUvUii9bSvVwmO2YSskxa6UblFJpaZ10AAA4TFbsa5Xq4TiWXAIgOOulG5RS6YitGABsudyqVA8HYCt+KClqx5SulEovRGTFlwu2ZF+rVA+HLZlKOxGx4pdUKZVejLHly4Ud+1qlejiAHTcBDs7kDdINSqn0Q2THAGDLDddK9XAAZElHADAjIxt0AFBKJYAtlwAoU7pBqZ05AMR/KBnYFgqFotIdSqm0tEU6oAuL72uV2pkVAwABYekGpVR6IkKHdAMAkJ4BUJaxYgCADgBKqQRhY8cAwKxnAJRdHAAZ0hHQAUAplSAEY8X+he34sqXUDpYMAGzFL6hSKv0wsRVnAAhkww3XSu3gAPBJRwCkA4BSKiEM+a0YAPQmQGUbRzoAAAjolG5QSqUnh6y5BGDB2ValvmDFAMCWdCil0g+BLTjLCTjgiHSDUjuz5cCrp8aUUokRteObt9EzncoyDuz4odQBQCmVEFHHitVOQbDjcUSlevgZCJP8tSkdANJMvltxEYG/L93RR2uaQzVXSkcob/ngZDJYOgOsNzsry/i7V+EbKtwhPYAorxF/FYzvSWf00UrpAOU9A5NJIOkMkD7urCzjwI5FePQMgFIqIRw4duxfWM8AKLs4ANlwXWqQdIBSKj0x23EPgF4CULZxAGPDTYBZueeXDZGOUEqlHwaPkG4A9BKAso9DoK3SEQAwdKj/IOkGpVT6IcKB0g0AwNa8llipLo4Br5eOAADDPiumdKVUuiEr9i1EWCfdoNTOHIIdP5TMUSt+SZVS6caSSwDEVuxrlerhAI4VP5TM0EsASinPMcOKAQBwrDjbqlQPhyy5BGDLlK6USjtW7FuiMJbsa5Xq4hhLrksx0SjpBqVU+iFgpHQDAID0DICyi0PGjutSBB4j3aCUSjNVVQ5AR0hnAIDTaceXLaV6ONZcl2LSAUAp5an8ZZ8eCrAVKwFm+uz4sqVUD8c4tFY6otuR0gFKqfRC8NnyxWJ7Q6jGijVXlOrh+Dm8Qjqi2xjAgjd2KKXSB1vzxeIjwIJXEiq1E+dQbFgFwIblgAef4VYeLB2hlEon1txb9KF0gFK7c0KhUBTAKukQAIg60aOkG5RS6YNgx71F3HUGQCmrON3/asUPJ0VxnHSDUiqNEB8vnQAAID0DoOzTPQCwFT+cxqEc6QalVPpgYKx0AwDA6ACg7NM1ANgynTKPk05QSqWHoonXHQDgMOkOAADZ8SVLqZ05AEDGseKHkwA9A6CU8sT2zIg1+xP26QCg7GPXGQDgqJOm3jhUOkIplfocGDtO/wORzuHGihutldpZ1xkAdL4lHdLN2a99+4nSEUqpNMDWnFF8t7WuzoZHrZXahQMAjaG6FQA2C7cAAIyPT5JuUEqlBSvuKWKgTbpBqd70PAbIAJZJhvRwwKdLNyilUlxVlQNgvHRGF3pDukCp3jg7/h2xFQMAM/KkG5RSqS3w5qdjAQyX7gAAh+z4cqXU7nYMAGwcW35Iv1bkBodJRyilUhdFfROkG3aI6gCg7PTFAOAYW05T+SLsnCYdoZRKXewYW84kRoa3O+9KRyjVmx0DQJTtuU5lnKgtv7xKqVTEZMs+5J2nn57VIR2hVG92DABLQzWfAlgn2LID2fPLq5RKMQUXXLUfbFkC2JKbq5XqjbPzfyDgFamQnTFQ2H0Xr1JK9YkZNCQAwCfdAQAgfkk6Qak92fUgy2gR6tjdyAlvrjlFOkIplXoI5hzphi84tuxTlfqSXQYAJl4iFbI7h236JVZKpQzms6UTukW2ZA1ulY5Qak92GQAiEWcxuhYFksekA4BSqk8CF03PBsiW1URfe+2B27dKRyi1J7sMAC8urF4HwJZHVgpyzy8bIh2hlEod7KezAZB0BwCAsFg6Qam96eVGO7blh3ZQ5uDMM6QjlFKpg8ix5fQ/2MCaS6pK9ebLAwCTLQMAiPlb0g1KqZRBFl3/h89nz75Uqd58aQBwLLoREOBJsOV0nlLKaoHJwdMAjJbu6LaucW71O9IRSu3NlwYA/5pR/wfgc4GW3hyVXzxdHwdUSu0TM10k3bCTRbDlhmql9uBLA0BDQ1WEgQaBll6RjyZJNyil7EfM9uwrGM9KJyi1L72utkfM1vzwMjv2/FIrpawUmDx9HIDjpTt6RDlqzT5UqT3pfQAgPJPskD0h8NgJk4MnSncopexFxqozhR8umX+3Xv9X1ut1AGgK1b4F4IPkpuyZY2DTL7dSyjIMi/YRZM8ZVKX2Zs8v3CF+Lokd+zJFOkApZafCyRXHAXSydEcPYrJp36nUHu1xACA4Nk2xOQXFM06TjlBK2cdEcZV0w06MA98/pSOUisUeB4DOTjwPwCSxZa/YZ66UblBKWaaqygHxpdIZO3l1UWjWGukIpWKxxwGg+70ALyaxZe8YU4qmTRsknaGUskf+stXfAnCEdMcOxE9JJygVqz3fAwAAjIVJ6ojFgZ3tQy+QjlBK2YOIr5Bu2AXTfOkEpWK11wHAT04oWSExYdbLAEopAECuW7Y/mC6U7ujBwPvNoZpXpTuUitVeB4AXQrPfB2DNDzQD5xS6ZWOkO5RS8rLYfymAwdIdPYiwQLpBqb7Y+yUAwLZTWj5D/grpCKWUOAJhhnTELuzaVyq1T/scAIiMZZcB8MOTpt44VDpDKSUnv3TGtwDYtELoquackRa9SVWpfdvnANC9KuCbSWiJ1YFDt7VfJh2hlBLE5lrphJ0xsBBVVdY8Nq1ULPZ9CQAAiO06tUV0DQCSzlBKJV9e8dXHEvBt6Y6dOXr9X6WgmAaAaBRWXQYg8NgCt+Js6Q6lVPI5ju8axPrlJTk+yVidvUg6Qqm+iumXaMn82tcAvJzglj5h8HXSDUqp5CqaeN0BBFj17D+D/9rQUBWR7lCqr2KfopnvS1xGv3xX3w+g1MDSmdFxDYD9pDt25XtAukCp/oh5AGAKPwigI4EtfeeYn0gnKKWSo8gNDmNQpXTHrujFltDs16UrlOqPmAeAltCf1gN4IoEtfcbAxMLJlda8BlQplTidXTf/HizdsZv7pAOU6q8+3UhDRH9OVEg/kTHR/5aOUEol1klTbxzKbN19P9udDPOIdIRS/dWnAeAwXv0PACsT1NJfxXnF5SdJRyilEmfYtvYKACOlO3bzWONDtRukI5Tqrz4NAKFQKErAXxMV00/k9zl6FkCpNJV7ftkQEG6Q7tgdMf9FukGpePT5WdqIid4LwKoVr5i5JDA5OF66QynlvaysjBsAjJLu2BkD7x9Ga5+R7lAqHn0eAJbMv/sdgJ9KREwcCAZ3QVcHVCqtBC6ang3i/5Tu2J1DmBUKhaLSHUrFo1+raRnCXV6HeCA/362YKB2hlPKQ33czgOHSGbv5fDtH7pWOUCpe/RoAFs+rfY6A17yOiRfB/C7HdTOlO5RS8ZswOXgiwFdJd3wJ0X2tobpN0hlKxavf62kzYbaXId6gr+5P2dOlK5RS8SOD3wPwS3fsholNtXSEUl7o/wDAWX8FsM7DFm8w/6xo4nUHSGcopfpvQmn52QScK93Ri6e7X5GuVMrr9wDQEpq5jYnqvIzxyMHhzPAt0hFKqf7Jcd1MYsfG+4xAoDulG5TySlyv1DQRpwZAp0ct3mFML5hcPkE6QynVd/tz9o8IPFa6Y3cMamsKVT8n3aGUV+IaAJYsmLWSmR7yKsZDDgzdnVtWliEdopSKXb4bPAbEP5Xu6A0BtwJg6Q6lvBLXAAAAIP4fANa9C5uBk7LW+6+X7lBKxY6AuwAMku74Mn4vc83Ih6UrlPJS3ANAS6jmXTDsfCEG4ReFxeVHS2copfYt3y2/BMB3pTt6Q4SbGxqqrPuio1Q84j8DAIC6zgLYuCrWEHZIH9lRynKFl5QfSKA7pDt6x+9lrB71oHSFUl7zZABoCtW+BcY8L7blNQa+EygN/lC6Qym1ZyZM1bBsvf8eTM6v9du/SkeeDAAAYHy4GZa9JKgHM2YWTq44TrpDKfVlgdLpxSBMke7oHX20mVfb9gZUpTzh2QCweG7NmwBCXm3PSwQMNYbvc13XJ92ilPpCvjv9cLDPxvVEuhD/z7JQKCydoVQieDYAAAAZuhl23gsAAPmrOPu/pCOUUjsQwfkzwCOkQ3rDwPubeM1fpDuUShRPB4Cm+dXLwLD3F4b4F/nu9NOlM5RSQL4bvAbAOdIde+IQ3aTf/lU683QAAADyOz9jYKvX2/WIn+D8pcgNDpMOUWogKyiuyCHgN9Ide7G4aV61lZc0lfKK5wNA0yOzPybG77zerodOCAN/lI5QaqAqcoPD2OEQgMHSLXviAP8JXfVPpTnPBwAAYMr6LYAVidi2RyYHSiuukY5QaiDqJLoXwInSHXtCRKHGUE2jdIdSiZaQAaAlNHMbmH+RiG17hvn2QjdYKJ2h1EBSUBq8npld6Y49o7Bh/ol0hVLJkJABAACax436C4DWRG3fAxkMhM6YVHaodIhSA0HB5PIJzHSrdMc+zG4J1bwrHaFUMiRsAEBVlWGmHyds+x5g4JCoL+Ovuj6AUokVuGh6NhuqBzhTumXPaD1j+y3SFUolS+IGAAAt9dXPE7AwkZ8RPz5rFUb+XrpCqXR17rmVWfA7IQCHS7fsDTP/pCX0p/XSHUolS0IHAABwopEKAJsS/TlxujZQUl4pHaFUGqJNwyL3ADhTOmRvGFjSMi77HukOpZIp4QPAogV1n4Do54n+nLgRzSxwyy+QzlAqnQRKgj8HaKp0xz5EfI7valRVWfkuE6USJeEDAAA0jx05G0BLMj4rDj4GPRhwg6ckZOvEqfhMcb+byaTkM9T9bjap+P9fTuz/jwpKK0pBsPtpIABg+n3j3Fn/J52hVLJRsj4or7j8JJ9DLwHISNZn9tPHfh8mvPBIjc3rGChltUI3WGiA5wBkSbfsw4dbBg3Jee2B221dvVSphEna3e+r3nzpszFjxw8HIZCsz+yn/QzjG9k5pz7ySVtrh3SMUqmmcHLFcYbxDIDh0i37QkSXvvTwXW3SHUpJSMolgB7bOyK/ALA8mZ/ZT6dkwf93fWeAUn1z5sXB0cbwPwAcLN2yL8yY1zSv+inpDqWkJHUAaH2irp2YZyA11tie0AksLJo2bZB0iFKpYLwbPCQSxT8BHCXdEoN1fhO5TjpCKUlJXwBnRdtL7x4xdvwhRDgt2Z/dD0dHOzNPyi48df4nra16h7BSe1A08boD4Is+AyBHuiUWRHRlY/2cJdIdSklK6hmAHuGOyP8D8JbEZ/cdX5C1wfewrhaoVO/yLq0cHs4IPwPgVOmWWDDTX5rmVc+T7lBKmsgA0PpEXTvDXA4gIvH5fUfFKzHyblRVifzvpZStzrw4ONoXjj4OYLx0S4w+DFPntdIRStlA7FvtyraXVo0eO94BoUiqoS8I+I8xa9qP/Wr29x7/4IMGvRygBryCkvIzDFMjgOOlW2JkHHYmLamvTZGzj0ollug32sy12bcAWCzZ0BcMvqRj5OoFemOgGugKSoPfYKKnkAKP+u1AuL2xfnaDdIZSthAdABoaqiKO4UsBfC7Z0RcEnN+5dcjCfPf6wdItSkkoLA2ez4ynAKTSY7LLMoe0278qoVJJJH5j20dvvrRh9LjxawGcL93SB8cQooVjjvna/BVvvRKWjlEqWQKl5Zcx08MALH6t75e0wzHfWfTgHz+WDlHKJuIDAACsWLb05dE5p30VoJOlW/rgKPgzvvnVk0999IM3WtulY5RKtEBJMAhQHSzZb8SKGT9oCdU+K92hlG2suaudMehqAK9Id/QNnx6O+JfkF884QbpEqQSiQGmwCoRqWLTPiAUz5rTU19wv3aGUjZL2MqBY5LvBYwhYCuAA6Za+ofUOU7HeYKTSTdG0aYPC7YP/DKaLpVv64VVGVqAlNHObdIhSNrLqVN7KtqXrjxw3vo2Bi2HZcLIPg5lwyeic0z9c0bb0NekYpbxQNKXs4HBH1t8A+q50Sz9s8MP5ZlPoD2ukQ5SylVUDAAB8tGzp22Nyxg8CUCjd0kc+ABNHjz198Iq2pc9LxygVj4LiipwoOw0ATpJu6QdDzCWN9TVLpUOUspmV37Jd1/WtQvYzAJ8l3dIfBHro80GDy/Qd4yoV5ZdUnEfEfwWwv3RLf0S3b1uy5Ik/T5DuUMp2Vg4AABC4aHo2/M5LAEZLt/TTG45DxY1zq9+WDlEqFl2D98hfAvgJLN437I3p2I7wxnUA850vL3r8BqTGm0eVEmHdJYAeK/790tYxJ57+DAiXAEjFlfeymTHtiLGnvbuy7aU26Ril9qZoStnBG81+CwBciRQ9+HMkgvCGtd2HfJpw6JHH7//JR289I92llK2sHQAAYMWbS9ccMS7vVQJfjBR7/KhbFhGVjB47fkR24anP6yuFlY0KimecFmV6FkCudEt/cTTadfA3O/+K6RCg1N5YPQAAwMplL753xNjxq4lwnnRLPxEIef7tztePyMl9dmXbSymz7LFKexQorbgGhEcAHCQd01/MjPD6teBoby8XpQmHHXnCqE8+euuppIcpZTnrBwAAWNm2tPWInNOGEqhAuiUORxLo+6PHnbZyxbKX9FFBJSpvyrWjjjzxPx4GcC1SZD/QKwYiGzfAdHbs7e867dAxJxzyyUdv/S1ZWUqlglS61keBkuCDIEyRDokXEYUMb5/eEvrTeukWNfAUlAQnMeFuAAdLt8QrsnkjIu0xPmzDuPvlxsfKoTcGKgUgtQYA5LvXDyZ0PA8gX7rFAyuIcEXTvJp/SYeogSHv0srhvrD5HcBl0i1eiLa3o3Pzhr79QzoEKLVDSg0AwI7HAxcBOE66xQMGoDs7tnf+rPWJOn2hkEqYgtLgN5hxL4CjpFu8EN2+DZ0b+3kCTYcApQCk4AAAAHmTKo9wfNEXCPiKdIsXGHjfYa5oqq99WrpFpZfCS8oPNJ3OrQD/ECn6+747E+5A5/p14HiO3zoEKJW6O4TA5MqvwkRfAHCYdIt3+Mlo1F++ZMGsldIlKvXll5S7RFQNYKR0i1dMuAPhDesA9uC4rUOAGuBSdgAAgMLJFccZwy8AGCXd4qFNDPziCKyZHQqFotIxKvXku8FjHKCWgbOlW7xkOsMIr1/rzcG/B3Hdyy88Ph06BKgBKKUHAADIL55+KjnOP5FyrxDeOwaWEOj65lB1i3SLSg15l1YOdzrNTcR8A4As6R4vmc5OdG5YCzYJWEtLhwA1QKX8AAAAhcUVecbhZwHsJ93iPX4Sjv+65rmz3pMuUZaqqnLy31h9mUO4jYFDpHO8xtEIOtatBUwCT4jpEKAGoLQYAIAddzn/DcBg6ZYE6CDGrIxI5i0Nj965UTpG2SPgln+P4fyWwGOlWxKhZ31/jibhaliChoAJk4Mn+qJUYBw+lEAjyfBGEFYT8OqhWNOil/qUlLQZAAAg3y3/OoGeQFqeCQAArGPg5qyh7Xc33HffdukYJafQLc81oNsAfFO6JVFMJNJ12j8ZB/8daPbLix69BnEOAXmXVg73dUSvZ8IVe39aidYzeKHP8K8b59cuj+czleqrtBoAgB07xr8jDVY524vVIL6jY1t0lq4fMLAUTq48mdn8lJlLkIa/vz040tm1vn8irvnvS5xnAgJuRTnAN6Nv71foJKY6Q5n/2RKaua0/n6tUX6XlDuQM9+qxUfieRVo9ItirNSD+vQ4C6S/gBk8hop+k+4Ef6L7bf8NawIhejr/n5UWPXY0+DAHnnluZtWlotAaEq+L43Ff9cCa9EJr9fhzbUComabsjySu++lif438O4DHSLUnwGRNuNxm+uiUPztosHaO8EyitOBPMPwXwLemWZOh6zn89wFa8OTvmIaBrf+N7FsCR8X4oAZ9GHZy1eG7Nm/FuS6m9SdsBAAAK3bIxBv7nABwr3ZIknwP0sHH4Tt15pK4c180czgdfSEQ3AJgg3ZMspmM7whvXe/ucf/z2OQR0H/z/BeBwDz93NRk6q2l+9TIPt6nULtJ6AACA8W7wkAzgGQBfk25JIsPA38B0V0t99fPSMSo2eVOuHeXr7JxOhOnp+Djf3kS3t6Nz0wZbH8Lb4xCQoIN/Dx0CVEKl/QAAAEUTrzsgnBGuRxrfMb0XrzPx3eDww/r6YStRoLTiDLD5AUClSLNVABTvAAAdJklEQVQFfGIR3fo5Oj+3/srVl4aABB/8e+gQoBJmQAwAAFBUVOUPj/zsDwCVS7cI6QD4WWbcn7V21MKGhqqIdNBAlu9OP5yILgPTDwAcI90jg9G5eROi7VulQ2J1z8uLTp0OVJkkHfx7fEaGvqlDgPLagBkAeuS7wZsI+DUG4P/tO/kYTA/4KHL/otDdbdIxA8VJU28cOqxj60VgmgbgGwAc4SQ5zAhvWA8TTrnlLO5xDjzs95lZ9DySc/DvoUOA8tyAPAgGSqcXg537AQyRbrHAcjCedAihxlBNE2y9CpuiiiZed0CHv+McIpwP0EUAhkk3SeNoFJ0b18F0dkqn9Bn5/Mg8OHsrEQ0V+PjPfIiepUO78sqAHAAAoGBy+QQ29BiAbOkWiyxn8HzHwYKmE0e9iKoqK57FSjV5U64d5YuELwQwCaCzAGRIN9mi6xn/9Yld1z9ByOdH5oiDQT5fXNtxHAfMDO7f0w46BCjPDNgBAADOdGd8JQLzBIAc6RYLrQXwPDE9xwbPNi+o/lA6yFb57vWDHYQLDcw5BDoHwMkY4L9bvTHbtyG8aYNtj/nFxKuDv89xcOQRhyBqDFas+gxGhwAlaMDvpIrc4LAwow6EKdItlnsbhOfI4HnHRFoWLaj7RDpIyrnnVmZtHh45laN0JhHOYaAQwCDpLotFou2fv9a5efN/SIf0h5cH/6OOOBSDB3c96LG1fTs+XPUpTP+WO9YhQMVtwA8APQJueRngzAI4U7olRXwCcCsIjQ5TUxRZrem6hnnBxTMOI2NyjaECIlPIoFzoAT9WqwEz5XCs+993PwnfT4RLpIP6wquDv9/vw1FHHIpBWbvuXrZu244PV+oQoGToALCT7vsC5gEYLd2SeigM8DIQ2pjxho+wDFFe1vi1UR+kyr0EuW7Z/lnIGAvicQQeC6ZxAMYNtEV5PPRCJzB5aajmUwBwXdeXSkOAZwd/nw9HjTkUgzJ7/27Rvm07PtAhQAnQAWA3Z7iVIw2iDzFwtnRLOmBgKwH/BvA+QB+B8CEMPgTxh4yOj5K5OFGO62bu7xwymjg6BuAxbOgoAGNAOBLAcdDBzysMwh2Zq7Nv2n29Cdd1fcs/7XiAQVZfcvPq4J/h9+Oo0YciK3Pv94G2d58JiOoQoJJIB4BeuK7rW0UHV4Hpp9D/jRKtHcB6AtYb8HoC1oFpPRHWMfHGrr/F2QY2XQ+Ms7OZu28hJ2DY/2/vzoPrug77jv/Ove9hBwiCBLGDoFx7GrHeytrUQjukLE3qTpzalqFKTaJonCllbfVk0vyRqd2Rp2mTTpuZKNpYO5m43iQZUuw2Y6uNVFuxRZG0LLfRyEwcLwSJ5WEhQBDE/t67p3+AcChVJHEu3n33vvu+nxkNRYoH58xIwvnyvLvIXLzC3mi7JCkwdZLaJLXJXPxx/a8dF3/k32e05mWCj7/01SPPXO43JD0CSrb5ZzPa09etmmxmU79/ZWVVp0YnVCyGukOCCIAzvhlewY2D991iZf9M5X3gB1CpvpuR9xubeZVtUiOglH/yv6a/R9ms29chAlBO1fsksk04OvToc6sq7JXsF+NeC5BgBRl9pkfThzb7HvuhoaHiNZ21v25kn4h6cZtVqs1fkvKFohaWlpzH1dXVak9fl/xwa+goyv/W+wbvvjbMYFQfTgA26fqP3TNojHdEsm1xrwVIkL8JPPNrx5969AdhBiflJKCUm/8lX1U9nTu1fVuz88jVtTWdGplQoRDqlR2TgadDvBIcV1PK/9pTbfTk90927n3PF3zpWklvjXs9QMysZD63UNfwsVe+8tCZsF/k5MmT9sD+d3x9bqHwVsnE8sruaDb/dRcWluVnPDXUud01mvF9NTc1aH5hUUHg/LCgJs/q1p63v+eboz98+azrYFQPTgDcmes/dt8njbG/L+4FR3Uak9XHX3r6sb8s1Rfct+9w1tZPPSljP1qqr7kZUW7+l8yiro4d2tHa4jxyLZ/XqZFx5fPu1wQYaaLo6SZOAnA5nACEMHry5eN9b7/uSVn7DyW9Je71AGUSSOZzxRr/w8eferSkF5rlcq8EB/a//ZlzC8W3SfpHpfzal1OezX/dwuKyPN9Xw8WnAG6W7/tqaWrU/MJSmOcEcBKAK+IEYIvWrw0wj4iXCiHFjPSqPHv30acePx7lPIODg/5PJ9a+JOn2KOcp5+Z/qV0727RrR6vzuHy+oFMj41rLu18TwEkALocTgC0aPfn9k295241/UvSKDTJ6j4gqpMuSjP7jeU3f+cpX/1vkL4TauCYgypOAuDZ/SVpcWn9admNDvdM43/fU0tyoC4tLKhY5CUBpsFmV0IHBew8E0hHxdkGkwzcDP7jv+JNHhss98b59h7O2cfIpWX2klF83zs3/Uu1trepod7+hKF8oangkp9W1tTDTjlrp0LGhx34SZjDShwAosb2DgzWtZte/sdb+rqSmuNcDuLLSKWOC37nS0/zKodQRkJTNf8POtm3qbN/hPK5QLGr4TE4rRAC2iACIyME7Du9cy2c+LaP7xEctqAwLMvrDmoalP3jh859fiXsxUukiIGmb/4a27S3q3rVDrt+KC4WihkdzWlklAhAeARCx6/7Fvb/gW/MZa+1g3GsBLiMvmT9Tofjpl752ZCruxbzRViMgqZv/hrbWFnV17HT+ZlwMAg2P5LS8shpmWiIABEC5XHfbPTd71vxnSe+Key3ABiM9b73gt1566shrca/lSvbtO5y1DZNflfRhl3FJ3/w3bN/WrO7OdudvyEEx0PDohJZWQh3YEAFVjgAoo8HBQX9c7XdZ6TPiBUOI13HPer/74tOPvBD3QjbLNQIqZfPf0NrSpJ7OXTKO35XXTwImtEwEwBEBEIO9g4M1Lbb9dmPsv5MMDxJCOR3zjH7/xa8+9hdxLySMzUZApW3+G7a1NKq3s8M5AgJrdXo0p8WlcBEgzz/40lMP/zTMYFQuAiBG+w4fztbMZu4wRp+W9A/iXg9S7SXP6A8qdeO/1NUioFI3/w3bmpvU290u4/jteT0CJn7+rAFHI/L8Q0RAdSEAEuCSEPiUeNEQSsjIHjXG/Kc0bPyXulwEVPrmv6G5qUH93R0yjkcBQWB1ZmxCC0QANoEASJCDBx/MrLVP/Zqk31aZnoeOVAqs9A3J/uGxocf/Ku7FROWNEZCWzX9Dc2OD+nvcI8BaqzNjk7qwuBRmWiKgihAACXVg8N4D1ph/ba39qHiOADZnQTJfCTz7R9Xy3PeNCDB+5sNp2vw3NDc2qK+nQ16ICBgZn9T8AhGAyyMAEu7ArfdcExjvsIz+lWTdnx2K1Ft/cp/9r9aufe7Y0J/Oxr2ectv/z+++1s+YV+R5qXw9d2NDvXb3dMjzPKdxRACuhgCoEDf+ysebbU3tXTLmfklvi3s9iJ21sn/lWfNwt5n+70NDQ+4vjE+B/bfe/Vbf87+tlN9W29BQp4GezhARII1NTGlufiHMtERAyhEAFejA4D37AnmHJXuHpOa414OyGpM1X7LG/km137tdLZv/hsb6WvX3dsl3jADJajQ3TQTg/0MAVLCDd91Vt7pQ/yFjdKdkPiiuFUirFWPMXxjZL3bZ6W9W65/2L1Vtm/+Gurpa7entlO98rYPVaO6s5uYvhJmWCEgpAiAlrrv9EwNewfsNGd0p6Zq414MtC4zsMSt9YVXFp14Z+uz5uBeUFNW6+W+or6vVQIgIsJLGJ6Z17jwRgHUEQArdeOt9e61vB2X1y5L2xb0ebFpgZI8FMkNS8PSxoSNjcS8oaap9899QV1ujPX1doU4CcpOzmpkL1ZMjXmAPvvjM4z8LMxjJQwCk3IFb77mm6JkPebKDVuYG8e88aYpG9nggM1SQnnp56LGJuBeUVAcGD/cHyhyT1B33WpKgtiarPX3dymTCRMCMZubmw0x7OvCDg8efPDIcZjCShc2gilx3+ycGTMH/sGfsL1np/ZIa4l5TNTLShJV9TkZ/6WX0jRe/8vi5uNeUdAfvuqtubbHhu5L+SdxrSZLamqwG+rqUzWQcR1rlpmY1cy7MSYA54wXBIU4CKh8BUKUOHnwwU2iffGdgdLOx5mYr/aKkbNzrSqllIx21xj7vWT3/4tDjP9D6R7LYpBtvu/eItbo77nUkUTab0Z6+LtVk3f/3nTo7q6mZuTDTDgd+cIiTgMpGAECSdP3gb7YZ1d5krT5gjG6UdK24qyAUKy0a6fuy9qiM/d/bFrJHn3324dW411WpLn7uf1KS6x9zq0Y2m9Ge3i7V1ISIgJlzmjob5hCKk4BKRwDgTR0cvLepIL2rKO3zjLnRWvt+SR1xryuhcsaYFwNrj/rSK+c0/b0fDg2txb2otLjhtnu/JKtfjXsdSbeVCJiendPkdKiHSHISUMEIAGza+q2G/nXG2HcG0l4j7ZU0IMn1ySSValXSSRmdtFaveca8ms/rxPe+9uhM3AtLqw9+8IHa803Fs5Ka4l5LJchmfA30dam2psZ57NnZOU2EigBOAioVAYAt2fehww31df4vFK3ZazztldVerb/SuF9SpT6bfUbSaWv1E3l6zQv0Q+Ob17qCqZ/yEJ7yuv62+3/J2OB/xr2OSpLxfQ30d6kuVASc18R0mJ41ZzIyB78z9MipEIMREwIAkdl/xyc7/CDfLxv0G3n91mq3kfoDqdtI7ZLaJLWWcUl5SbNWZsbIzspqRDJnZHTaGJ1WUacvNNQPv/rF/7JYxjXhCm4YvPffSvq9uNdRaTIZXwO9XaqrdY+A2bl5jU/OyP06VSKg0hAAiNeDD3oHfzTeVgiybVZBm6x38cef36LYJHPx7oRALZL3+gsTvSAvaUGSjDWLVnZNkqzVOXn+vFfUTDFbOGv97OyJLz8c6sZnxOeG2+77Y1n7QNzrqES+52mgr0v1dbXOY2fn5pWbPBviVhUioJIQAAAS64bBe74gmV+Pex2VyvM97enpUn29ewScO39B4xPTzhFgpVOmaA699OePnnaeFGVVLRdvAahAxogLLLcgKAYaHs1padn9LtTt25rV07VLxvGPiUbaI1/fef/g/XucJ0VZEQAAEstKPBp5i4pBoFMj41pcWnYe29rSpN4QESDZ/oKC5w8MHu53nhRlQwAASCwv8E/EvYY0sNbq9NiEFhbdI2Bb88UIcP/E+JpAGU4CEowAAJBYmbM7X5QU6lm1eL0gsDozHj4C+ns6ZNyPAnYXFHybCEgmHvUKILGGh18I+va+9xrxWuuSsFY6f2FR9bU1zg8Lqq3Jqr6uVvMXnO+SbQ1kP7R777u/fubkK6HeQ4xocAIAINE85f+D1p/CiBKw1urM+JTmF5acxzY3Nqi/p0Oe+0kAHwckECcAABLtzMlXzvdd+94mGR2Iey1pMn9hUXV12VAnAQ31dZpfWJK1TjcJtgYKfnnPO977tdOvvcwzORKAEwAAiVdztv1Tkr4d9zrSxMrqzNi05uYXnMc2NtRrd2+nPM91CzFvKRT13etu/8SA86QoOR4EBKAivG/wgfaiike1/q4JlIxRb9dOtbY0O49cWl7R8OiEgiBwHGl/mvHNoe88+diI86QoGQIAQMXYf8cnO7xC4VtG9tq415IuRt27dqhte4vzyOWVVQ2P5FR0jgCdDvzgIK8Sjg8BAKCiEAFRMera1aYd27c5j1xZWdWp0QkVi84vyyQCYsQ1AAAqyoknHpoMMpmbrMzJuNeSLla5qVmdPed+fV5dXa0Gejvl+87Xle/2it4LXBMQD04AAFQkTgKi07Fzu9p3bHcet7K6plMjuTAnAcOBHxziJKC8CAAAFYsIiE7YCFhdy+vUSE6FQsF1KBFQZgQAgIpGBESnva1VHe1tzuNW1/IaHskpTwQkGtcAAKhoXBMQnenZOU1MzzqPq63JaqCvS9ms8zUBA17Re27/Rx/odZ4UzjgBAJAKnAREZ2fbNnW273Aet5Zf/zggn3c+CfiJVXDw2NCRMedJsWkEAIDUIAKi09baou6OHXLdNvL5gk6NjGvNPQJ+bBUcIgKiQwAASBUiIDrbtzWru7PdeePIFwo6NZLT2lredUoiIEIEAIDUIQKiEz4CihoezWl1dc11SiIgIgQAgFQiAqLT2tyknq5dcn0rcKFY1PCZnFbWiIAkIAAApBYREJ2W5kb1de+ScdxGChdPAlY4CYgdAQAg1YiA6DQ3Nqi/p0PG8SigGAQaHslpeWXVdUoioIQIAACpRwREJ2wEBMVAp8ZyWl4mAuJCAACoCkRAdLZyEnB6NKclIiAWBACAqkEERKexoU67ezrleW4PmA2s1enRnBaXVlynJAK2iAAAUFWIgOg0NNRpIHQETGhxadl1yh8b3zt49MlHxl0HggAAUIWIgOg01teqv7dLvmsEBFZnxia04B4Bf2d87xAR4I4AAFCViIDo1NfVaqC3U77v9jIga63OjE3qwuKS65REQAgEAICqRQREp762Rrv7upXx3U4CrLUaGZ/U/AIREDUCAEBVIwKiU1dboz19XaFOAoiA6BEAAKoeERCd2poa7enrVCaTcRxpNZKb1vn5BdcpiYBNIgAAQERAlGprstrT161Mxu0kQLIazU1rjgiIBAEAABcRAdGpya5HQDYbJgLOam7+guuURMBVEAAAcAkiIDrrEdClbNb944DxyRnNzs27Tvkj43s3EQFvjgAAgDcgAqKTzWa0p69bNWEiYGpGs+eIgFIhAADgTRAB0clmMhro61JtTdZxpFVuckYznASUBAEAAJdBBEQn4/va09el2toax5FWualZzZw77zolEfAGBAAAXAEREJ1MxtdAb5fqnCNAmjo7q6mZOddhP/KLhUPf/fPP5pwnTCECAACuggiIju95GujrUn1drfPYqZlzmjp7znUYEXARAQAAm0AERMfzPQ30dqqhrs557PTsnCanZ12HEQEiAABg04iA6KyfBHSqPkQEnJ09r4npGddhVR8BBAAAOCAComOM0UBvlxobiIByIAAAwBEREJ31COhUY0O989jZuXmNT85Isi7DqjYCCAAACIEIiI7nGfV3d6qp0T0Czp2/oPGJabcEkP7WLxZuqrYIIAAAICQiIDrGGPX3dKi5scF5LBGwOQQAAGwBERAdY4z6uneppanReezchQWN5aZk3SqgqiKAAACALSIComN0MQKa3SPg/IUFjRIBl0UAAEAJEAFRMurt2qnWlmbnkecvLGh0fFrW7QOBv81Lh14eemzCecIKQgAAQIkQAVEKHwEXFpZ0ZnxS1u0oIPURQAAAQAkRAdExkro727V9W4gIWFzSmTEi4FIEAACUGBEQJaPuXTvUtr3FeeSFxSWNjE0qIAIkEQAAEAkiIEpGXbvatGP7NueRi0vLOj02qSAIXIalMgIIAACICBEQpfARsLS0ouGxiaqPAAIAACJEBERr187t2rVju/O4peUVnR6dUNEtAv4mL92UlgggAAAgYkRAtNrbWtXR3uY8bnllVcMjuaqNAAIAAMqACIhW2AhYWVnV8GhOhWL1RQABAABlQgREa+f2VnXuCnkSMDqhYrHoMqziI4AAAIAyIgKi1dbaou6OHXLd3lbX1jQ8klO+sPkIMNKr2UzhAy888dmzjstMBAIAAMqMCIhWW2uLujp2Om9wq2t5nRoZV6FKIoAAAIAYEAHR2t7arO6O9lARsH4SUNj0mEqNAAIAAGJCBESrtaVJPZ27ZBx3utW1vIZHx5XPp/skgAAAgBgRAdHa1tyk3i73CMjnC/rZyLjy+c2fBEj2r2syxZsrJQK8uBcAANXsxBMPTQaZzE1W5mTca0mj8xcWNJKbdH0dsHzfU8bPOM5m3rlW8J8/eMfhnY4DY0EAAEDMiIBozV9Y1JnRzb8JMLBWp8cmtbyyEmK2yokAPgIAgITg44BoNTU2aHdPh8wVPg8IrNXp0QktLi1vcbbkfxxAAABAghAB0WpqrFd/T6e8N4mA0m3+G5IdAQQAACQMERCtxvo67e7tlOf9/afggbU6PZLT4nKYY/8rSW4EEAAAkEBEQLQa6us0cDECotv8N9i/LhS8D3zva4/ORDRBKAQAACQUERCt+rpa9fd0aHR8KsLN/+f+b6Fgbk5SBBAAAJBgREC0jDGbvjugBBIVAQQAACQcEZAqiYkAAgAAKgARkCqJiAACAAAqBBGQKrFHAAEAABWECEiVWCOAAACACkMEpEpsEUAAAEAFIgJSJZYIIAAAoEIRAalS9gggAACgghEBqVLWCOB1wABQwXiVcKq8K5Oxz733I/ftKMdknAAAQApwEpAq/8dq9eZjQ386G+UkBAAApAQRkCqRRwABAAApQgSkSqQRQAAAQMoQAakSWQQQAACQQkRAqkQSAQQAAKQUEZAqJY8AbgMEgJTiFsFUebdR7XPXD/5mW6m+ICcAAJBynASkyg+sVm8pxUkAAQAAVYAISJWSRAABAABVgghIlS1HAAEAAFWECEiVLUUAAQAAVYYISJXQEUAAAEAVIgJSJVQEEAAAUKWIgFT5gZe1N7/4lcfPbXYAzwEAgCrFcwJS5R8HefPcgX95z/bNDuAEAACqHCcBqfKKl7W3bOYkgAAAABAB6bKpCCAAAACSiICUuWoEEAAAgJ8jAlLlihFAAAAAXocISJXLRgB3AQAAXoe7A1JlX5A339j/qw+0vPEfcAIAAHhTN95+f7ctBi9Iemvca8GWHSvW+P/0xJcfnt/4BU4AAABv6uiTj4wXM9n3cRKQCtf7a8WnBwcH/Y1fIAAAAJd14omHJj3f3CLpx3GvBVt2y5jZ+eDGT/gIAABwVVwYmBpBMbDvPvHM469yAgAAuCouDEwNz/fMpyVOAAAADrgwMBWsp8IAJwAAgE3jwsBUMEWb+aB/9d8HAMDfG3vtxOLud+z/uqz9FUk74l4P3BljVzkBAAA44ySg0pndBAAAIBRuEaxonQQAACA0TgIqVpEAAABsCbcIVqQcAQAA2DI+DqgwVqcIAABASfBxQOUwnv1fPAgIAFBSPCwo8QrFTLaXEwAAQElxEpBwVl848cRDkwQAAKDkuCYgqcxakAn+vcTrgAEAEeEkIHmM7G8ff/LI8PrfAwAQIa4JSAr7xZeGHr9z42ecAAAAIsVJQPys9GxN4/LhS3+NEwAAQFnsv+OTHV6h8C0je23ca6kmVnq2tnHpoy98/vMrl/46AQAAKBsioLwut/lLBAAAoMyIgPK40uYvEQAAgBgQAdG62uYvEQAAgJgQAdHYzOYvEQAAgBgRAaW12c1fIgAAADEjAkrDZfOXCAAAQAIQAVvjuvlLBAAAICGIgHDCbP4SAQAASBAiwE3YzV8iAAAACUMEbM5WNn+JAAAAJBARcGVb3fwlAgAAkFBEwJsrxeYvEQAAgAQjAl6vVJu/RAAAABKOCFhXys1fIgAAABWg2iOg1Ju/RAAAACpEtUZAFJu/RAAAACpItUVAVJu/RAAAACpMtURAlJu/RAAAACpQ2iPASs+2LvgfefbZh1ejmoMAAABUpLRGQDk2f4kAAABUsLRFQLk2f4kAAABUuLREQDk3f4kAAACkQKVHQLk3f4kAAACkRKVGQBybv0QAAABSpNIiIK7NXyIAAAApUykREOfmLxEAAIAUSnoExL35SwQAACClkhoBSdj8JQIAAJBiSYuApGz+EgEAAEi5pERAkjZ/iQAAAFSBuCMgaZu/RAAAAKpEXBGQxM1fIgAAAFWk3BGQ1M1fIgAAAFWmXBGQ5M1fIgAAAFUo6ghI+uYvEQAAgCoVVQRUwuYvEQAAgCpW6giolM1fIgAAAFXuxtvv77bF4H9I2relL2T05fN2+uM/HBpaK83KokUAAACq3vWDv1XvmdUj1urOEMML1prfOfb0o39U8oVFiAAAAOCiA4P3Hgik35P0i5v47YEx5hlj9KkXn3r076JeW6kRAAAAvMGBwXv2FY35Z8bqZiv1GalTUl7SuKSfWWO/aT37jeNPHhmOd6Xh/T9MElL0Xk1mTwAAAABJRU5ErkJggg==;" parent="1" vertex="1">
          <mxGeometry x="975" y="300" width="110" height="110" as="geometry" />
        </mxCell>
        <mxCell id="aitId8dFWl2rubIfRfJI-96" value="Ad-Hoc&lt;div&gt;Sql queries&lt;/div&gt;" style="text;html=1;align=center;verticalAlign=middle;whiteSpace=wrap;rounded=0;fontStyle=1" parent="1" vertex="1">
          <mxGeometry x="930" y="420" width="180" height="30" as="geometry" />
        </mxCell>
        <mxCell id="aitId8dFWl2rubIfRfJI-97" value="" style="html=1;shadow=0;dashed=0;align=center;verticalAlign=middle;shape=mxgraph.arrows2.arrow;dy=0.6;dx=40;notch=0;fillColor=#dae8fc;gradientColor=#7ea6e0;strokeColor=#6c8ebf;" parent="1" vertex="1">
          <mxGeometry x="810" y="245" width="125.5" height="40" as="geometry" />
        </mxCell>
      </root>
    </mxGraphModel>
  </diagram>
</mxfile>
